{"glyphs":{"0":{"ha":418,"x_min":14,"x_max":404,"o":"m 372 196 q 383 147 372 169 q 404 113 393 125 q 346 86 369 101 q 300 38 322 71 q 267 -23 282 13 q 251 -85 251 -58 q 257 -107 251 -93 q 191 -80 226 -107 q 110 10 156 -53 l 89 42 q 53 90 68 74 q 14 111 38 107 q 46 200 46 135 l 46 389 q 38 458 44 440 q 14 485 31 476 q 38 511 31 493 q 46 581 44 529 l 46 808 q 35 857 46 835 q 14 892 25 879 q 72 918 49 903 q 118 967 96 933 q 151 1027 136 992 q 167 1089 167 1063 q 161 1111 167 1097 q 227 1084 192 1111 q 308 994 263 1057 l 329 963 q 365 914 350 931 q 404 893 381 897 q 372 804 372 869 l 372 581 q 381 511 374 529 q 404 485 388 493 q 381 458 388 476 q 372 389 374 440 l 372 196 m 157 838 q 173 703 157 764 q 222 554 189 643 q 261 443 251 472 l 261 849 q 246 906 261 879 q 211 946 231 933 q 233 963 224 951 q 243 983 243 974 q 239 994 243 990 q 183 929 208 976 q 157 849 157 882 l 157 838 m 179 10 q 231 66 207 26 q 260 140 254 106 q 244 313 260 235 q 212 440 229 390 q 157 583 194 489 l 157 156 q 172 98 157 125 q 207 58 188 71 q 185 42 194 53 q 175 21 175 31 q 179 10 175 14 z "},"1":{"ha":226,"x_min":14,"x_max":213,"o":"m 178 132 q 213 -107 178 -69 q 106 -19 176 -112 q 39 28 76 19 q 48 38 40 31 q 61 58 56 44 q 67 90 67 71 l 67 389 q 58 458 65 440 q 35 485 51 476 q 58 511 51 493 q 67 581 65 529 l 67 953 q 40 955 56 950 q 14 972 25 960 q 87 1008 53 976 q 160 1089 121 1039 q 178 1111 181 1114 l 178 581 q 186 511 179 529 q 210 485 193 493 q 186 458 193 476 q 178 389 179 440 l 178 132 z "},"2":{"ha":438,"x_min":14,"x_max":424,"o":"m 378 83 q 424 -108 378 -53 l 364 -110 q 264 -97 310 -110 q 169 -44 218 -83 q 99 21 144 -25 q 60 58 75 46 q 26 71 46 69 q 48 103 44 88 q 51 158 51 119 l 51 389 q 43 458 50 440 q 19 485 36 476 q 39 501 32 490 q 49 539 46 513 q 28 604 44 588 q 203 657 140 618 q 267 751 267 696 l 267 925 q 261 965 267 938 q 114 893 214 918 q 119 885 113 889 q 138 882 126 882 q 164 893 158 882 l 164 675 q 92 722 122 703 q 33 749 61 740 q 47 772 42 756 q 53 797 53 788 l 53 861 q 42 934 53 896 q 14 985 31 972 q 47 981 29 981 q 135 998 89 981 q 213 1042 182 1015 q 244 1094 244 1069 q 240 1111 244 1103 q 289 1028 289 1074 q 286 1006 289 1013 q 344 965 307 983 q 408 946 381 947 q 383 897 389 932 q 378 806 378 861 l 378 738 q 326 622 378 671 q 163 525 275 574 l 163 171 q 199 39 164 81 q 292 -24 235 -3 q 281 -1 293 -15 q 249 19 269 13 q 267 60 267 29 l 267 369 q 239 447 267 414 q 306 488 269 454 l 329 510 q 382 557 365 544 q 413 567 399 569 q 378 328 378 529 l 378 83 z "},"3":{"ha":425,"x_min":14,"x_max":411,"o":"m 379 194 q 390 146 379 168 q 411 111 400 124 q 353 85 376 100 q 307 36 329 69 q 274 -24 289 11 q 258 -86 258 -60 q 264 -108 258 -94 q 198 -81 233 -108 q 117 8 163 -54 l 96 40 q 60 89 75 72 q 21 110 44 106 q 53 199 53 133 l 53 328 q 18 567 53 529 q 49 557 32 569 q 101 510 65 544 l 125 488 q 192 447 161 454 q 164 369 164 414 l 164 154 q 179 97 164 124 q 214 57 194 69 q 192 40 201 51 q 182 19 182 29 q 186 8 182 13 q 242 74 217 26 q 268 154 268 121 l 268 438 q 217 531 268 486 q 81 604 167 575 l 176 638 q 248 674 229 649 q 267 751 267 700 l 267 925 q 261 965 267 938 q 114 893 218 919 q 119 885 111 889 q 136 881 126 881 q 164 893 153 881 l 164 675 q 92 722 122 703 q 33 749 61 740 q 47 772 42 756 q 53 797 53 788 l 53 861 q 42 934 53 896 q 14 985 31 972 q 47 981 29 981 q 135 998 89 981 q 213 1042 182 1015 q 244 1094 244 1069 q 240 1111 244 1103 q 289 1028 289 1074 q 286 1006 289 1013 q 344 965 307 983 q 408 946 381 947 q 383 897 389 932 q 378 806 378 861 l 378 738 q 353 658 378 699 q 286 594 329 618 q 356 530 332 567 q 379 451 379 493 l 379 194 z "},"4":{"ha":435,"x_min":14,"x_max":421,"o":"m 386 132 q 421 -107 386 -69 q 314 -19 385 -112 q 247 28 285 19 q 256 38 249 31 q 269 58 264 44 q 275 90 275 71 l 275 226 q 249 194 261 204 q 163 142 206 154 q 60 131 119 131 l 14 131 q 60 322 60 186 l 60 389 q 51 458 58 440 q 28 485 44 476 q 51 511 44 493 q 60 581 58 529 l 60 872 q 25 1111 60 1074 q 56 1101 39 1114 q 108 1054 72 1089 l 132 1032 q 199 992 168 999 q 171 914 171 958 l 171 299 q 189 258 171 268 q 156 238 168 251 q 146 215 144 224 q 240 279 204 238 q 275 410 275 321 l 275 953 q 249 955 264 950 q 222 972 233 960 q 295 1008 261 976 q 368 1089 329 1039 q 386 1111 389 1114 l 386 581 q 394 511 388 529 q 418 485 401 493 q 394 458 401 476 q 386 389 388 440 l 386 132 z "},"5":{"ha":425,"x_min":14,"x_max":411,"o":"m 379 194 q 390 146 379 168 q 411 111 400 124 q 353 85 376 100 q 307 36 329 69 q 274 -24 289 11 q 258 -86 258 -60 q 264 -108 258 -94 q 198 -81 233 -108 q 117 8 163 -54 l 96 40 q 60 89 75 72 q 21 110 44 106 q 53 199 53 133 l 53 328 q 18 567 53 529 q 49 557 32 569 q 101 510 65 544 l 125 488 q 192 447 161 454 q 164 369 164 414 l 164 154 q 179 97 164 124 q 214 57 194 69 q 192 40 201 51 q 182 19 182 29 q 186 8 182 13 q 242 74 217 26 q 268 154 268 121 l 268 438 q 240 531 268 488 q 164 575 211 575 q 110 560 136 575 l 44 607 l 44 806 q 39 897 44 861 q 14 946 33 932 q 78 965 42 947 q 136 1006 115 983 q 133 1028 133 1013 q 182 1111 133 1074 q 178 1094 178 1103 q 209 1042 178 1069 q 287 998 240 1015 q 375 981 333 981 q 408 985 392 981 q 381 934 392 972 q 369 861 369 896 l 369 675 q 297 722 328 703 q 239 749 267 740 q 253 772 247 756 q 258 797 258 788 l 258 893 q 286 881 269 881 q 303 885 296 881 q 308 893 311 889 q 161 965 204 919 q 156 925 156 938 l 156 657 q 189 660 178 660 q 326 602 274 660 q 379 451 379 544 l 379 194 z "},"6":{"ha":424,"x_min":14,"x_max":410,"o":"m 371 813 q 376 787 371 803 q 390 764 382 771 q 332 737 363 756 q 260 690 301 718 l 260 893 q 288 881 271 881 q 305 885 297 881 q 310 893 313 889 q 163 961 214 917 q 157 924 157 944 l 157 574 q 318 668 260 668 q 372 581 372 668 q 381 511 374 529 q 404 485 388 493 q 381 458 388 476 q 372 389 374 440 l 372 196 q 383 147 372 169 q 404 113 393 125 q 346 86 369 101 q 300 38 322 71 q 267 -23 282 13 q 251 -85 251 -58 q 257 -107 251 -93 q 191 -80 226 -107 q 110 10 156 -53 l 89 42 q 53 90 68 74 q 14 111 38 107 q 46 200 46 135 l 46 389 q 38 458 44 440 q 14 485 31 476 q 38 511 31 493 q 46 581 44 529 l 46 804 q 40 895 46 860 q 15 944 35 931 q 76 962 42 946 q 133 999 110 978 q 125 1035 125 1018 q 169 1111 125 1076 q 165 1096 165 1103 q 208 1036 165 1067 q 310 987 251 1006 q 410 972 368 968 q 382 927 393 960 q 371 861 371 894 l 371 813 m 261 458 q 250 534 261 510 q 221 558 239 558 q 181 529 200 558 q 157 458 161 500 l 157 156 q 172 98 157 125 q 207 58 188 71 q 185 42 194 53 q 175 21 175 31 q 179 10 175 14 q 235 75 210 28 q 261 156 261 122 l 261 458 z "},"7":{"ha":424,"x_min":14,"x_max":410,"o":"m 318 542 q 389 510 361 508 l 303 460 l 257 207 q 228 -37 228 44 q 240 -107 228 -90 q 146 -19 201 -112 q 85 28 122 19 q 96 37 88 31 q 111 57 104 43 q 122 90 118 71 l 146 210 l 194 476 q 154 490 174 490 q 136 488 150 490 l 208 553 l 250 775 l 278 928 l 278 931 q 265 965 278 946 q 114 893 221 921 q 119 885 111 889 q 136 881 126 881 q 164 893 153 881 l 164 808 q 169 783 164 799 q 183 760 175 767 q 125 733 156 751 q 53 686 94 714 l 53 800 l 53 861 q 42 927 53 894 q 14 972 31 960 q 114 987 56 968 q 215 1036 172 1006 q 258 1096 258 1067 q 254 1111 258 1103 q 299 1035 299 1076 q 290 999 299 1018 q 349 962 314 978 q 410 944 383 946 q 381 869 397 931 q 356 751 365 808 l 318 542 z "},"8":{"ha":425,"x_min":14,"x_max":411,"o":"m 372 763 q 348 707 372 726 q 268 660 324 688 q 347 624 321 640 q 372 581 372 608 q 380 511 372 529 q 404 485 388 493 q 380 458 388 476 q 372 389 372 440 l 372 196 q 383 147 372 169 q 404 113 393 125 q 346 86 369 101 q 300 38 322 71 q 267 -23 282 13 q 251 -85 251 -58 q 257 -107 251 -93 q 191 -80 226 -107 q 110 10 156 -53 l 89 42 q 53 90 68 74 q 14 111 38 107 q 46 200 46 135 l 46 389 q 38 458 46 440 q 14 485 31 476 q 38 511 31 493 q 46 581 46 529 q 68 619 46 603 q 129 651 90 635 q 67 691 89 669 q 46 744 46 713 l 46 804 q 40 895 46 860 q 15 944 35 931 q 81 964 44 946 q 139 1006 118 982 q 136 1028 136 1013 q 185 1111 136 1074 q 181 1094 181 1103 q 221 1035 181 1065 q 316 987 261 1006 q 411 972 371 968 q 383 927 394 960 q 372 861 372 894 l 372 763 m 157 761 q 211 686 157 714 q 261 749 261 713 l 261 893 q 289 881 272 881 q 306 885 299 881 q 311 893 314 889 q 164 967 207 919 q 157 924 157 942 l 157 761 m 261 551 q 245 590 261 574 q 200 619 229 606 q 157 535 157 583 l 157 156 q 172 98 157 125 q 207 58 188 71 q 185 42 194 53 q 175 21 175 31 q 179 10 175 14 q 235 75 210 28 q 261 156 261 122 l 261 551 z "},"9":{"ha":428,"x_min":14,"x_max":414,"o":"m 375 582 q 383 513 376 531 q 407 486 390 494 q 383 460 390 478 q 375 390 376 442 l 375 194 q 385 146 375 168 q 407 111 396 124 q 349 85 372 100 q 303 36 325 69 q 269 -24 285 11 q 254 -86 254 -60 q 260 -108 254 -94 q 194 -81 229 -108 q 113 8 158 -54 l 92 40 q 56 89 71 72 q 17 110 40 106 q 49 199 49 133 l 49 231 q 14 469 49 432 q 44 460 28 472 q 97 413 61 447 l 121 390 q 188 350 157 357 q 160 272 160 317 l 160 154 q 175 97 160 124 q 210 57 190 69 q 188 40 197 51 q 178 19 178 29 q 182 8 178 13 q 238 74 213 26 q 264 154 264 121 l 264 526 q 185 451 236 488 q 146 439 165 439 q 78 485 107 439 q 49 617 49 532 l 49 804 q 43 895 49 860 q 18 944 38 931 q 84 964 47 946 q 142 1006 121 982 q 139 1028 139 1013 q 188 1111 139 1074 q 183 1094 183 1103 q 224 1035 183 1065 q 319 987 264 1006 q 414 972 374 968 q 386 927 397 960 q 375 861 375 894 l 375 582 m 264 893 q 292 881 275 881 q 309 885 301 881 q 314 893 317 889 q 167 967 210 919 q 160 924 160 942 l 160 629 q 176 556 165 581 q 201 531 188 531 q 240 578 222 531 q 264 706 258 626 l 264 893 z "},"":{"ha":701,"x_min":42,"x_max":660,"o":"m 353 0 q 228 44 281 0 q 169 161 176 89 q 76 210 111 171 q 42 303 42 249 q 65 386 42 347 l 215 647 q 271 710 236 685 q 354 735 306 735 q 428 716 394 735 q 490 649 463 697 l 639 386 q 660 307 660 350 q 626 212 660 253 q 536 161 592 171 q 478 45 531 90 q 353 0 426 0 m 438 533 q 449 579 449 551 q 424 649 449 618 q 358 679 400 679 q 304 665 325 679 q 265 621 283 651 l 115 360 q 100 307 100 335 q 131 238 100 267 q 201 210 161 210 q 247 223 225 210 q 285 263 269 236 l 438 533 m 422 263 q 504 210 451 210 q 574 239 543 210 q 606 308 606 268 q 592 360 606 333 l 496 528 q 486 506 496 522 l 385 329 l 422 263 m 390 213 q 374 235 376 231 l 353 271 l 332 235 l 317 213 l 390 213 m 353 56 q 438 84 404 56 q 479 157 471 113 l 226 157 q 272 85 236 114 q 353 56 307 56 z "}," ":{"ha":278,"x_min":0,"x_max":0,"o":""},"A":{"ha":443,"x_min":14,"x_max":429,"o":"m 390 581 q 397 513 390 532 q 418 486 404 494 l 418 483 q 397 456 404 475 q 390 389 390 438 l 390 6 q 397 -137 390 -60 q 425 -233 404 -214 l 425 -237 q 318 -146 388 -237 q 251 -99 289 -107 l 251 -93 q 279 -36 279 -76 l 279 456 q 276 483 279 468 q 265 501 272 497 l 265 506 q 313 513 289 504 q 336 535 338 522 q 282 524 313 535 q 224 485 253 513 q 175 419 194 457 l 175 46 q 210 -51 175 -22 l 210 -56 q 173 -79 188 -61 q 148 -116 158 -97 q 133 -142 138 -135 q 14 -236 82 -233 l 14 -231 q 50 -153 36 -217 q 64 -19 64 -89 l 64 389 q 57 456 64 438 q 36 483 50 475 l 36 486 q 57 513 50 494 q 64 581 64 532 l 64 958 q 32 1094 64 1064 l 33 1099 q 96 1117 60 1100 q 154 1156 132 1133 q 203 1238 154 1197 l 208 1235 q 233 1181 203 1210 q 311 1134 263 1153 q 404 1115 360 1115 q 428 1117 419 1115 l 429 1111 q 401 1060 413 1099 q 390 988 390 1022 l 390 581 m 279 1019 l 283 1019 q 311 1008 294 1008 q 326 1012 321 1008 q 329 1019 332 1015 q 176 1097 219 1047 q 175 1078 175 1090 l 175 547 q 279 613 226 593 l 279 1019 z "},"B":{"ha":432,"x_min":14,"x_max":418,"o":"m 386 35 q 390 -21 386 -6 q 411 -53 393 -36 q 377 -66 392 -54 q 339 -103 363 -78 q 268 -168 293 -149 q 174 -220 219 -207 q 74 -233 128 -233 l 14 -232 q 60 -40 60 -176 l 60 389 q 51 458 58 440 q 28 485 44 476 q 51 511 44 493 q 60 581 58 529 l 60 1081 q 94 1057 76 1057 q 113 1065 110 1057 q 18 1168 18 1103 q 29 1210 18 1190 q 54 1238 40 1229 q 96 1169 49 1201 q 222 1119 143 1136 q 354 1107 279 1107 q 418 1111 401 1107 q 394 1058 403 1096 q 386 972 386 1021 l 386 953 q 408 847 386 863 q 314 788 369 847 q 366 751 336 764 q 415 738 396 739 q 394 695 401 724 q 386 643 386 667 l 386 581 q 394 511 388 529 q 418 485 401 493 q 394 458 401 476 q 386 389 388 440 l 386 35 m 171 704 q 225 799 196 756 q 272 861 254 843 q 275 900 275 872 l 275 979 q 247 1023 275 1010 q 171 1047 219 1036 l 171 704 m 275 707 l 260 718 q 197 599 222 661 q 171 490 172 538 l 171 -64 q 189 -104 171 -96 q 156 -125 168 -111 q 146 -147 144 -139 q 238 -85 203 -126 q 275 47 274 -43 l 275 707 z "},"C":{"ha":424,"x_min":14,"x_max":410,"o":"m 392 314 q 410 174 410 246 q 364 -37 410 61 q 299 -143 343 -81 q 262 -203 272 -183 q 257 -233 251 -224 q 191 -206 226 -233 q 110 -117 156 -179 l 89 -85 q 53 -36 68 -53 q 14 -15 38 -19 q 46 74 46 8 l 46 389 q 38 458 44 440 q 14 485 31 476 q 38 511 31 493 q 46 581 44 529 l 46 931 q 40 1022 46 986 q 15 1071 35 1057 q 80 1090 43 1072 q 138 1131 117 1108 q 135 1153 135 1138 q 183 1238 135 1200 q 179 1221 179 1229 q 210 1169 179 1196 q 288 1124 242 1142 q 376 1107 335 1107 q 410 1111 393 1107 q 382 1060 393 1099 q 371 988 371 1022 l 371 715 q 376 690 371 706 q 390 667 382 674 q 332 640 363 658 q 260 593 301 621 l 260 1019 q 288 1007 271 1007 q 305 1011 297 1007 q 310 1019 313 1015 q 163 1092 206 1046 q 157 1050 157 1064 l 157 53 q 173 -18 157 21 q 207 -68 189 -57 q 185 -85 194 -74 q 175 -106 175 -96 q 179 -117 175 -112 q 244 -53 221 -83 q 289 18 268 -24 q 317 111 317 69 q 293 146 317 146 q 272 140 283 146 q 319 208 304 169 q 339 303 339 253 q 311 436 339 367 q 392 314 369 396 z "},"D":{"ha":432,"x_min":14,"x_max":418,"o":"m 386 33 q 390 -22 386 -7 q 411 -54 393 -37 q 377 -67 392 -56 q 339 -104 363 -79 q 268 -169 293 -150 q 174 -222 219 -208 q 74 -235 128 -235 l 14 -233 q 60 -42 60 -178 l 60 389 q 51 458 58 440 q 28 485 44 476 q 51 511 44 493 q 60 581 58 529 l 60 1081 q 94 1057 76 1057 q 113 1065 110 1057 q 18 1168 18 1103 q 29 1210 18 1190 q 54 1238 40 1229 q 96 1169 49 1201 q 222 1119 143 1136 q 354 1107 279 1107 q 418 1111 401 1107 q 394 1058 403 1096 q 386 972 386 1021 l 386 581 q 394 511 388 529 q 418 485 401 493 q 394 458 401 476 q 386 389 388 440 l 386 33 m 275 979 q 247 1023 275 1010 q 171 1047 219 1036 l 171 -65 q 189 -106 171 -97 q 156 -126 168 -112 q 146 -149 144 -140 q 238 -86 203 -128 q 275 46 274 -44 l 275 979 z "},"E":{"ha":424,"x_min":14,"x_max":410,"o":"m 392 314 q 410 174 410 246 q 364 -37 410 61 q 299 -143 343 -81 q 262 -203 272 -183 q 257 -233 251 -224 q 191 -206 226 -233 q 110 -117 156 -179 l 89 -85 q 53 -36 68 -53 q 14 -15 38 -19 q 46 74 46 8 l 46 389 q 38 458 44 440 q 14 485 31 476 q 38 511 31 493 q 46 581 44 529 l 46 931 q 40 1022 46 986 q 15 1071 35 1057 q 80 1090 43 1072 q 138 1131 117 1108 q 135 1153 135 1138 q 183 1238 135 1200 q 179 1221 179 1229 q 210 1169 179 1196 q 288 1124 242 1142 q 376 1107 335 1107 q 410 1111 393 1107 q 382 1060 393 1099 q 371 988 371 1022 l 371 799 q 376 773 371 789 q 390 750 382 757 q 332 723 363 742 q 260 676 301 704 l 260 1019 q 288 1007 271 1007 q 305 1011 297 1007 q 310 1019 313 1015 q 163 1092 206 1046 q 157 1050 157 1064 l 157 596 q 207 628 178 617 q 265 639 236 639 q 323 626 297 639 q 361 589 349 614 q 234 553 289 589 q 157 410 179 518 l 157 53 q 173 -18 157 21 q 207 -68 189 -57 q 185 -85 194 -74 q 175 -106 175 -96 q 179 -117 175 -112 q 244 -53 221 -83 q 289 18 268 -24 q 318 113 318 75 q 293 147 318 147 q 272 140 286 147 q 339 303 339 206 q 311 436 339 367 q 392 314 369 396 z "},"F":{"ha":442,"x_min":14,"x_max":428,"o":"m 389 799 q 394 773 389 789 q 408 750 400 757 q 350 723 381 742 q 278 676 319 704 l 278 1019 q 306 1007 289 1007 q 323 1011 315 1007 q 328 1019 331 1015 q 181 1092 224 1046 q 175 1050 175 1064 l 175 601 q 224 629 196 619 q 279 639 251 639 q 336 626 311 639 q 374 589 361 614 q 253 558 307 589 q 175 433 200 526 l 175 44 q 182 -19 175 4 q 210 -57 189 -43 q 173 -81 188 -62 q 148 -117 158 -99 q 133 -143 138 -136 q 77 -213 106 -193 q 14 -232 49 -233 q 50 -154 36 -218 q 64 -21 64 -90 l 64 389 q 56 458 63 440 q 32 485 49 476 q 56 511 49 493 q 64 581 63 529 l 64 931 q 58 1022 64 986 q 33 1071 53 1057 q 98 1090 61 1072 q 156 1131 135 1108 q 153 1153 153 1138 q 201 1238 153 1200 q 197 1221 197 1229 q 228 1169 197 1196 q 306 1124 260 1142 q 394 1107 353 1107 q 428 1111 411 1107 q 400 1060 411 1099 q 389 988 389 1022 l 389 799 z "},"G":{"ha":438,"x_min":14,"x_max":424,"o":"m 385 797 q 390 772 385 788 q 404 749 396 756 q 346 722 376 740 q 274 675 315 703 l 274 1019 q 301 1007 285 1007 q 319 1011 311 1007 q 324 1019 326 1015 q 176 1092 219 1046 q 171 1050 171 1064 l 171 -65 q 189 -106 171 -97 q 156 -126 168 -112 q 146 -149 144 -140 q 238 -86 203 -128 q 275 46 274 -44 l 275 465 q 237 481 254 465 q 219 514 219 496 q 244 551 219 536 q 274 529 239 529 q 340 543 300 529 q 413 581 379 557 q 392 526 397 556 q 386 458 386 496 l 386 33 q 390 -22 386 -7 q 411 -54 393 -37 q 377 -67 392 -56 q 339 -104 363 -79 q 268 -169 293 -150 q 174 -222 219 -208 q 74 -235 128 -235 l 14 -233 q 60 -42 60 -178 l 60 389 q 51 458 58 440 q 28 485 44 476 q 51 511 44 493 q 60 581 58 529 l 60 931 q 54 1022 60 986 q 29 1071 49 1057 q 94 1090 57 1072 q 151 1131 131 1108 q 149 1153 149 1138 q 197 1238 149 1200 q 193 1221 193 1229 q 224 1169 193 1196 q 302 1124 256 1142 q 390 1107 349 1107 q 424 1111 407 1107 q 396 1060 407 1099 q 385 988 385 1022 l 385 797 z "},"H":{"ha":439,"x_min":14,"x_max":425,"o":"m 390 6 q 425 -233 390 -196 q 318 -146 389 -239 q 251 -99 289 -107 q 260 -89 253 -96 q 274 -69 268 -82 q 279 -36 279 -56 l 279 233 q 269 283 279 258 q 317 290 296 281 q 336 313 339 300 l 318 310 l 317 310 l 282 301 q 223 262 253 289 q 175 197 193 235 l 175 46 q 182 -18 175 6 q 210 -56 189 -42 q 173 -79 188 -61 q 148 -116 158 -97 q 133 -142 138 -135 q 77 -212 106 -192 q 14 -231 49 -232 q 50 -153 36 -217 q 64 -19 64 -89 l 64 389 q 56 458 63 440 q 32 485 49 476 q 56 511 49 493 q 64 581 63 529 l 64 1042 q 101 1015 83 1015 q 117 1022 114 1015 q 64 1064 85 1042 q 33 1113 46 1085 q 21 1167 21 1140 q 58 1238 21 1213 q 57 1219 57 1231 q 110 1139 57 1168 q 155 1118 135 1125 q 200 1111 175 1111 q 175 1022 175 1094 l 175 325 q 279 390 218 368 l 279 1040 q 274 1096 279 1071 q 263 1128 268 1121 q 336 1165 304 1138 l 357 1186 q 396 1225 379 1211 q 425 1238 413 1239 q 390 1040 390 1200 l 390 581 q 399 511 392 529 q 422 485 406 493 q 399 458 406 476 q 390 389 392 440 l 390 6 z "},"I":{"ha":224,"x_min":14,"x_max":210,"o":"m 175 46 q 182 -18 175 6 q 210 -56 189 -42 q 173 -79 188 -61 q 148 -116 158 -97 q 133 -142 138 -135 q 77 -212 106 -192 q 14 -231 49 -232 q 50 -153 36 -217 q 64 -19 64 -89 l 64 389 q 56 458 63 440 q 32 485 49 476 q 56 511 49 493 q 64 581 63 529 l 64 1042 q 101 1015 83 1015 q 117 1022 114 1015 q 64 1064 85 1042 q 33 1113 46 1085 q 21 1167 21 1140 q 58 1238 21 1213 q 57 1219 57 1231 q 110 1139 57 1168 q 155 1118 135 1125 q 200 1111 175 1111 q 175 1022 175 1094 l 175 581 q 183 511 176 529 q 207 485 190 493 q 183 458 190 476 q 175 389 176 440 l 175 46 z "},"J":{"ha":424,"x_min":14,"x_max":410,"o":"m 378 74 q 410 -15 378 8 q 371 -36 386 -19 q 335 -85 356 -53 l 314 -117 q 233 -206 268 -179 q 167 -233 197 -233 q 162 -203 172 -224 q 125 -143 151 -183 q 60 -37 81 -81 q 14 174 14 61 q 32 314 14 246 q 113 436 54 396 q 85 303 85 367 q 151 140 85 206 q 129 146 140 146 q 106 111 106 146 q 135 18 106 75 q 179 -53 156 -24 q 244 -117 203 -83 q 249 -106 249 -112 q 239 -85 249 -96 q 217 -68 229 -74 q 251 -18 235 -57 q 267 53 267 21 l 267 389 q 258 458 265 440 q 235 485 251 476 q 258 511 251 493 q 267 581 265 529 l 267 1042 q 304 1015 286 1015 q 319 1022 317 1015 q 267 1064 288 1042 q 236 1113 249 1085 q 224 1167 224 1140 q 261 1238 224 1213 q 260 1219 260 1231 q 313 1139 260 1168 q 358 1118 338 1125 q 403 1111 378 1111 q 378 1022 378 1094 l 378 581 q 386 511 379 529 q 410 485 393 493 q 386 458 393 476 q 378 389 379 440 l 378 74 z "},"K":{"ha":439,"x_min":14,"x_max":425,"o":"m 390 4 q 425 -235 390 -197 q 318 -147 389 -240 q 251 -100 289 -108 q 260 -90 253 -97 q 274 -70 268 -83 q 279 -37 279 -57 l 279 281 q 253 311 267 288 q 198 215 219 263 q 175 132 176 167 l 175 44 q 182 -19 175 4 q 210 -57 189 -43 q 173 -81 188 -62 q 148 -117 158 -99 q 133 -143 138 -136 q 77 -213 106 -193 q 14 -232 49 -233 q 50 -154 36 -218 q 64 -21 64 -90 l 64 389 q 56 458 63 440 q 32 485 49 476 q 56 511 49 493 q 64 581 63 529 l 64 1042 q 101 1015 83 1015 q 117 1022 114 1015 q 64 1064 85 1042 q 33 1113 46 1085 q 21 1167 21 1140 q 58 1238 21 1213 q 57 1219 57 1231 q 110 1139 57 1168 q 155 1118 135 1125 q 200 1111 175 1111 q 175 1022 175 1094 l 175 315 q 279 456 213 382 l 279 1040 q 274 1096 279 1071 q 263 1128 268 1121 q 336 1165 304 1138 l 357 1186 q 396 1225 379 1211 q 425 1238 413 1239 q 390 1040 390 1200 l 390 547 q 413 442 390 457 q 324 393 376 442 q 363 342 332 361 q 417 328 394 324 q 394 282 397 304 q 390 225 390 260 l 390 4 z "},"L":{"ha":435,"x_min":14,"x_max":421,"o":"m 403 314 q 421 174 421 246 q 375 -37 421 61 q 310 -143 354 -81 q 273 -203 283 -183 q 268 -233 263 -224 q 202 -206 238 -233 q 121 -117 167 -179 l 100 -85 q 64 -36 79 -53 q 25 -15 49 -19 q 57 74 57 8 l 57 389 q 49 458 56 440 q 25 485 42 476 q 49 511 42 493 q 57 581 56 529 l 57 1042 q 94 1015 76 1015 q 110 1022 107 1015 q 57 1064 78 1042 q 26 1113 39 1085 q 14 1167 14 1140 q 51 1238 14 1213 q 50 1219 50 1231 q 103 1139 50 1168 q 148 1118 128 1125 q 193 1111 168 1111 q 168 1022 168 1094 l 168 581 q 176 511 169 529 q 200 485 183 493 q 176 458 183 476 q 168 389 169 440 l 168 53 q 184 -18 168 21 q 218 -68 200 -57 q 196 -85 206 -74 q 186 -106 186 -96 q 190 -117 186 -112 q 256 -53 232 -83 q 300 18 279 -24 q 329 113 329 75 q 304 147 329 147 q 283 140 297 147 q 350 303 350 206 q 322 436 350 367 q 403 314 381 396 z "},"M":{"ha":658,"x_min":14,"x_max":644,"o":"m 606 4 q 640 -235 606 -197 q 533 -147 604 -240 q 467 -100 504 -108 q 476 -90 468 -97 q 489 -70 483 -83 q 494 -37 494 -57 l 494 1022 q 522 1010 506 1010 q 540 1014 532 1010 q 544 1022 547 1018 q 406 1083 483 1029 q 390 972 390 1046 l 390 543 q 463 510 435 508 l 390 467 l 390 -74 q 432 -167 432 -119 q 396 -232 432 -208 q 380 -185 400 -211 q 333 -139 360 -158 q 299 -122 315 -126 q 254 -118 283 -118 q 273 -83 267 -110 q 279 -22 279 -57 l 279 468 q 267 476 276 469 q 247 487 257 483 q 229 490 238 490 q 210 488 217 490 l 279 549 l 279 979 q 251 1023 279 1010 q 175 1047 224 1036 l 175 44 q 182 -19 175 4 q 210 -57 189 -43 q 173 -81 188 -62 q 148 -117 158 -99 q 133 -143 138 -136 q 77 -213 106 -193 q 14 -232 49 -233 q 50 -154 36 -218 q 64 -21 64 -90 l 64 389 q 56 458 63 440 q 32 485 49 476 q 56 511 49 493 q 64 581 63 529 l 64 1081 q 99 1057 81 1057 q 117 1065 114 1057 q 22 1168 22 1103 q 33 1210 22 1190 q 58 1238 44 1229 q 100 1169 53 1201 q 226 1119 147 1136 q 350 1107 289 1107 q 406 1160 382 1122 q 443 1238 429 1197 q 480 1172 447 1203 q 558 1122 513 1140 q 644 1101 604 1103 q 617 1056 628 1089 q 606 990 606 1024 l 606 581 q 614 511 607 529 q 638 485 621 493 q 614 458 621 476 q 606 389 607 440 l 606 4 z "},"N":{"ha":439,"x_min":14,"x_max":425,"o":"m 390 6 q 425 -233 390 -196 q 318 -146 389 -239 q 251 -99 289 -107 q 260 -89 253 -96 q 274 -69 268 -82 q 279 -36 279 -56 l 279 979 q 251 1023 279 1010 q 175 1047 224 1036 l 175 46 q 182 -18 175 6 q 210 -56 189 -42 q 173 -79 188 -61 q 148 -116 158 -97 q 133 -142 138 -135 q 77 -212 106 -192 q 14 -231 49 -232 q 50 -153 36 -217 q 64 -19 64 -89 l 64 389 q 56 458 63 440 q 32 485 49 476 q 56 511 49 493 q 64 581 63 529 l 64 1081 q 99 1057 81 1057 q 117 1065 114 1057 q 22 1168 22 1103 q 33 1210 22 1190 q 58 1238 44 1229 q 100 1169 53 1201 q 226 1119 147 1136 q 358 1107 283 1107 q 422 1111 406 1107 q 399 1058 407 1096 q 390 972 390 1021 l 390 581 q 399 511 392 529 q 422 485 406 493 q 399 458 406 476 q 390 389 392 440 l 390 6 z "},"O":{"ha":425,"x_min":14,"x_max":411,"o":"m 372 581 q 381 511 374 529 q 404 485 388 493 q 381 458 388 476 q 372 389 374 440 l 372 69 q 383 21 372 43 q 404 -14 393 -1 q 346 -40 369 -25 q 300 -89 322 -56 q 267 -149 282 -114 q 251 -211 251 -185 q 257 -233 251 -219 q 191 -206 226 -233 q 110 -117 156 -179 l 89 -85 q 53 -36 68 -53 q 14 -15 38 -19 q 46 74 46 8 l 46 389 q 38 458 44 440 q 14 485 31 476 q 38 511 31 493 q 46 581 44 529 l 46 931 q 40 1022 46 986 q 15 1071 35 1057 q 81 1090 44 1072 q 139 1132 118 1108 q 136 1154 136 1139 q 185 1238 136 1200 q 181 1221 181 1229 q 212 1169 181 1196 q 290 1124 243 1142 q 378 1107 336 1107 q 411 1111 394 1107 q 383 1060 394 1099 q 372 988 372 1022 l 372 581 m 261 1019 q 289 1007 272 1007 q 306 1011 299 1007 q 311 1019 314 1015 q 164 1093 207 1046 q 157 1050 157 1068 l 157 29 q 172 -28 157 -1 q 207 -68 188 -56 q 185 -85 194 -74 q 175 -106 175 -96 q 179 -117 175 -112 q 235 -51 210 -99 q 261 29 261 -4 l 261 1019 z "},"P":{"ha":436,"x_min":14,"x_max":422,"o":"m 390 633 q 413 528 390 543 q 317 465 374 528 q 219 321 261 403 q 175 188 176 239 l 175 44 q 182 -19 175 4 q 210 -57 189 -43 q 173 -81 188 -62 q 148 -117 158 -99 q 133 -143 138 -136 q 77 -213 106 -193 q 14 -232 49 -233 q 50 -154 36 -218 q 64 -21 64 -90 l 64 389 q 56 458 63 440 q 32 485 49 476 q 56 511 49 493 q 64 581 63 529 l 64 1081 q 99 1057 81 1057 q 117 1065 114 1057 q 22 1168 22 1103 q 33 1210 22 1190 q 58 1238 44 1229 q 100 1169 53 1201 q 226 1119 147 1136 q 358 1107 283 1107 q 422 1111 406 1107 q 399 1058 407 1096 q 390 972 390 1021 l 390 633 m 175 383 q 242 488 204 440 q 318 563 279 536 q 308 567 317 567 q 276 542 293 567 q 279 592 279 561 l 279 979 q 251 1023 279 1010 q 175 1047 224 1036 l 175 383 z "},"Q":{"ha":425,"x_min":14,"x_max":411,"o":"m 372 581 q 381 511 374 529 q 404 485 388 493 q 381 458 388 476 q 372 389 374 440 l 372 69 q 383 21 372 43 q 404 -14 393 -1 q 346 -40 369 -25 q 300 -89 322 -56 q 263 -161 276 -122 q 346 -199 303 -199 q 397 -187 368 -199 q 288 -239 351 -239 q 240 -232 265 -239 q 196 -210 219 -228 q 146 -162 164 -187 q 110 -117 114 -122 l 89 -85 q 53 -36 68 -53 q 14 -15 38 -19 q 46 74 46 8 l 46 389 q 38 458 44 440 q 14 485 31 476 q 38 511 31 493 q 46 581 44 529 l 46 931 q 40 1022 46 986 q 15 1071 35 1057 q 81 1090 44 1072 q 139 1132 118 1108 q 136 1154 136 1139 q 185 1238 136 1200 q 181 1221 181 1229 q 212 1169 181 1196 q 290 1124 243 1142 q 378 1107 336 1107 q 411 1111 394 1107 q 383 1060 394 1099 q 372 988 372 1022 l 372 581 m 261 1019 q 289 1007 272 1007 q 306 1011 299 1007 q 311 1019 314 1015 q 164 1093 207 1046 q 157 1050 157 1068 l 157 29 q 172 -28 157 -1 q 207 -68 188 -56 q 185 -85 194 -74 q 175 -106 175 -96 q 179 -117 175 -112 q 235 -51 210 -99 q 261 29 261 -4 l 261 1019 z "},"R":{"ha":439,"x_min":14,"x_max":425,"o":"m 390 6 q 425 -233 390 -196 q 318 -146 389 -239 q 251 -99 289 -107 q 260 -89 253 -96 q 274 -69 268 -82 q 279 -36 279 -56 l 279 239 q 265 251 272 243 q 253 269 257 260 q 199 176 219 224 q 176 93 178 128 l 175 94 l 175 44 q 182 -19 175 4 q 210 -57 189 -43 q 173 -81 188 -62 q 148 -117 158 -99 q 133 -143 138 -136 q 77 -213 106 -193 q 14 -232 49 -233 q 50 -154 36 -218 q 64 -21 64 -90 l 64 389 q 56 458 63 440 q 32 485 49 476 q 56 511 49 493 q 64 581 63 529 l 64 1081 q 99 1057 81 1057 q 117 1065 114 1057 q 22 1168 22 1103 q 33 1210 22 1190 q 58 1238 44 1229 q 100 1169 53 1201 q 226 1119 147 1136 q 358 1107 283 1107 q 422 1111 406 1107 q 399 1058 407 1096 q 390 972 390 1021 l 390 508 q 413 403 390 418 q 325 354 376 403 q 367 306 335 328 q 417 286 399 283 q 394 240 397 263 q 390 183 390 218 l 390 6 m 175 258 q 242 363 204 315 q 318 438 279 411 q 308 442 317 442 q 276 417 292 442 q 279 456 279 428 l 279 979 q 251 1023 279 1010 q 175 1047 224 1036 l 175 258 z "},"S":{"ha":438,"x_min":14,"x_max":424,"o":"m 385 797 q 390 772 385 788 q 404 749 396 756 q 346 722 376 740 q 274 675 315 703 l 274 1019 q 301 1007 285 1007 q 319 1011 311 1007 q 324 1019 326 1015 q 176 1092 219 1046 q 171 1051 171 1064 l 171 751 q 201 660 171 700 q 299 619 232 619 q 410 644 349 619 q 388 543 396 629 q 397 503 390 515 q 418 485 404 492 q 394 458 401 476 q 386 389 388 440 l 386 33 q 390 -22 386 -7 q 411 -54 393 -37 q 377 -67 392 -56 q 339 -104 363 -79 q 268 -169 293 -150 q 174 -222 219 -208 q 74 -235 128 -235 l 14 -233 q 60 -42 60 -178 l 60 328 q 25 567 60 529 q 56 557 39 569 q 108 510 72 544 l 132 488 q 199 447 168 454 q 171 369 171 414 l 171 -65 q 189 -106 171 -97 q 156 -126 168 -112 q 146 -149 144 -140 q 238 -86 203 -128 q 275 46 274 -44 l 275 567 q 218 560 249 560 q 99 614 139 560 q 60 738 60 668 l 60 932 q 54 1023 60 988 q 29 1072 49 1058 q 94 1092 57 1074 q 151 1132 131 1110 q 149 1154 149 1139 q 197 1238 149 1200 q 193 1221 193 1229 q 224 1169 193 1196 q 302 1124 256 1142 q 390 1107 349 1107 q 424 1111 407 1107 q 396 1060 407 1099 q 385 988 385 1022 l 385 797 z "},"T":{"ha":533,"x_min":14,"x_max":519,"o":"m 519 1111 q 494 1064 504 1100 q 481 988 485 1028 q 474 858 474 915 q 481 731 474 785 q 500 667 489 676 q 399 774 428 678 q 369 1033 369 869 q 397 1021 381 1021 q 415 1025 407 1021 q 419 1033 422 1029 q 318 1078 357 1050 l 318 581 q 326 511 319 529 q 350 485 333 493 q 326 458 333 476 q 318 389 319 440 l 318 44 q 325 -19 318 4 q 353 -57 332 -43 q 316 -81 331 -62 q 291 -117 301 -99 q 276 -143 281 -136 q 220 -213 249 -193 q 157 -232 192 -233 q 193 -154 179 -218 q 207 -21 207 -90 l 207 389 q 199 458 206 440 q 175 485 192 476 q 199 511 192 493 q 207 581 206 529 l 207 1072 q 114 1033 168 1047 q 119 1025 111 1029 q 136 1021 126 1021 q 164 1033 153 1021 q 135 774 164 869 q 33 667 106 678 q 52 731 44 676 q 60 858 60 785 q 53 988 60 915 q 39 1064 49 1028 q 14 1111 29 1100 q 57 1107 35 1107 q 188 1143 125 1107 q 267 1239 250 1179 q 346 1143 283 1179 q 476 1107 408 1107 q 519 1111 499 1107 z "},"U":{"ha":432,"x_min":14,"x_max":418,"o":"m 383 69 q 394 21 383 43 q 415 -14 404 -1 q 357 -40 381 -25 q 311 -89 333 -56 q 278 -149 293 -114 q 263 -211 263 -185 q 268 -233 263 -219 q 202 -206 238 -233 q 121 -117 167 -179 l 100 -85 q 64 -36 79 -53 q 25 -15 49 -19 q 57 74 57 8 l 57 389 q 49 458 56 440 q 25 485 42 476 q 49 511 42 493 q 57 581 56 529 l 57 1042 q 94 1015 76 1015 q 110 1022 107 1015 q 57 1064 78 1042 q 26 1113 39 1085 q 14 1167 14 1140 q 51 1238 14 1213 q 50 1219 50 1231 q 103 1139 50 1168 q 148 1118 128 1125 q 193 1111 168 1111 q 168 1022 168 1094 l 168 29 q 183 -28 168 -1 q 218 -68 199 -56 q 196 -85 206 -74 q 186 -106 186 -96 q 190 -117 186 -112 q 247 -51 221 -99 q 272 29 272 -4 l 272 1040 q 267 1096 272 1071 q 256 1128 261 1121 q 329 1165 297 1138 l 350 1186 q 389 1225 372 1211 q 418 1238 406 1239 q 383 1040 383 1200 l 383 581 q 392 511 385 529 q 415 485 399 493 q 392 458 399 476 q 383 389 385 440 l 383 69 z "},"V":{"ha":511,"x_min":14,"x_max":497,"o":"m 463 35 q 466 -21 463 -6 q 488 -53 469 -36 q 460 -65 471 -54 q 432 -100 450 -75 q 374 -169 406 -143 q 151 -233 294 -236 q 185 -103 185 -190 q 181 -40 185 -76 l 133 428 q 119 467 126 456 q 97 485 111 478 q 115 502 108 492 q 122 538 121 513 l 71 1042 q 113 1015 93 1015 q 126 1022 124 1015 q 69 1064 90 1043 q 30 1118 46 1086 q 14 1179 14 1150 q 42 1238 14 1215 q 106 1139 40 1172 q 199 1113 156 1113 q 183 1057 183 1101 q 185 1022 183 1035 l 288 -51 q 310 -87 289 -78 q 278 -115 288 -94 q 272 -147 269 -136 q 313 -118 297 -133 q 340 -64 329 -103 q 351 47 351 -25 l 351 1040 q 346 1096 351 1071 q 335 1128 340 1121 q 408 1165 376 1138 l 429 1186 q 468 1225 451 1211 q 497 1238 485 1239 q 463 1040 463 1200 l 463 581 q 471 511 464 529 q 494 485 478 493 q 471 458 478 476 q 463 389 464 440 l 463 35 m 121 569 l 119 581 l 121 569 z "},"W":{"ha":647,"x_min":14,"x_max":633,"o":"m 599 69 q 609 21 599 43 q 631 -14 619 -1 q 572 -40 596 -25 q 526 -89 549 -56 q 493 -149 508 -114 q 478 -211 478 -185 q 483 -233 478 -219 q 417 -206 453 -233 q 336 -117 382 -179 l 314 -85 l 311 -89 q 278 -149 293 -114 q 263 -211 263 -185 q 268 -233 263 -219 q 202 -206 238 -233 q 121 -117 167 -179 l 100 -85 q 64 -36 79 -53 q 25 -15 49 -19 q 57 74 57 8 l 57 389 q 49 458 56 440 q 25 485 42 476 q 49 511 42 493 q 57 581 56 529 l 57 1042 q 94 1015 76 1015 q 110 1022 107 1015 q 57 1064 78 1042 q 26 1113 39 1085 q 14 1167 14 1140 q 51 1238 14 1213 q 50 1219 50 1231 q 103 1139 50 1168 q 148 1118 128 1125 q 193 1111 168 1111 q 168 1022 168 1094 l 168 29 q 183 -28 168 -1 q 218 -68 199 -56 q 196 -85 206 -74 q 186 -106 186 -96 q 190 -117 186 -112 q 247 -51 221 -99 q 272 29 272 -4 l 272 472 q 228 490 246 490 q 208 488 215 490 l 272 544 l 272 1040 q 238 1238 272 1200 q 267 1225 250 1239 q 306 1186 283 1211 l 326 1165 q 400 1128 358 1138 q 389 1096 394 1121 q 383 1040 383 1071 l 383 547 q 461 510 432 508 l 383 464 l 383 139 l 383 119 l 383 29 q 399 -28 383 -1 q 433 -68 414 -56 q 411 -85 421 -74 q 401 -106 401 -96 q 406 -117 401 -112 q 462 -51 436 -99 q 488 29 488 -4 l 488 1040 q 482 1096 488 1071 q 471 1128 476 1121 q 544 1165 513 1138 l 565 1186 q 604 1225 588 1211 q 633 1238 621 1239 q 599 1040 599 1200 l 599 581 q 607 511 600 529 q 631 485 614 493 q 607 458 614 476 q 599 389 600 440 l 599 69 z "},"X":{"ha":439,"x_min":14,"x_max":425,"o":"m 390 4 q 425 -235 390 -197 q 318 -147 389 -240 q 251 -100 289 -108 q 260 -90 253 -97 q 274 -70 268 -83 q 279 -37 279 -57 l 279 551 q 263 590 279 574 q 218 619 247 606 q 175 535 175 583 l 175 44 q 182 -19 175 4 q 210 -57 189 -43 q 173 -81 188 -62 q 148 -117 158 -99 q 133 -143 138 -136 q 77 -213 106 -193 q 14 -232 49 -233 q 50 -154 36 -218 q 64 -21 64 -90 l 64 389 q 56 458 64 440 q 32 485 49 476 q 56 511 49 493 q 64 581 64 529 q 83 621 64 604 q 140 654 103 638 q 84 693 104 672 q 64 744 64 714 l 64 1042 q 101 1015 83 1015 q 117 1022 114 1015 q 64 1064 85 1042 q 33 1113 46 1085 q 21 1167 21 1140 q 58 1238 21 1213 q 57 1219 57 1231 q 110 1139 57 1168 q 155 1118 135 1125 q 200 1111 175 1111 q 175 1022 175 1094 l 175 761 q 219 692 175 719 q 279 761 279 725 l 279 1040 q 274 1096 279 1071 q 263 1128 268 1121 q 336 1165 304 1138 l 357 1186 q 396 1225 379 1211 q 425 1238 413 1239 q 390 1040 390 1200 l 390 763 q 366 707 390 726 q 286 660 342 688 q 365 624 339 640 q 390 581 390 608 q 398 511 390 529 q 422 485 406 493 q 398 458 406 476 q 390 389 390 440 l 390 4 z "},"Y":{"ha":435,"x_min":14,"x_max":421,"o":"m 386 35 q 390 -21 386 -6 q 411 -53 393 -36 q 377 -66 392 -54 q 339 -103 363 -78 q 268 -168 293 -149 q 174 -220 219 -207 q 74 -233 128 -233 l 14 -232 q 60 -40 60 -176 l 60 390 q 25 629 60 592 q 132 542 61 635 q 199 494 161 503 q 190 485 197 492 q 176 465 182 478 q 171 432 171 451 l 171 -64 q 189 -104 171 -96 q 156 -125 168 -111 q 146 -147 144 -139 q 238 -85 203 -126 q 275 47 274 -43 l 275 485 q 183 548 233 504 q 96 643 132 592 q 60 738 60 694 l 60 1042 q 97 1015 79 1015 q 113 1022 110 1015 q 60 1064 81 1042 q 29 1113 42 1085 q 17 1167 17 1140 q 54 1238 17 1213 q 53 1219 53 1231 q 106 1139 53 1168 q 151 1118 131 1125 q 196 1111 171 1111 q 171 1022 171 1094 l 171 779 q 199 674 171 721 q 275 594 228 628 l 275 1040 q 269 1096 275 1071 q 258 1128 264 1121 q 332 1165 300 1138 l 353 1186 q 392 1225 375 1211 q 421 1238 408 1239 q 386 1040 386 1200 l 386 581 q 394 511 388 529 q 418 485 401 493 q 394 458 401 476 q 386 389 388 440 l 386 35 z "},"Z":{"ha":429,"x_min":14,"x_max":415,"o":"m 397 314 q 415 174 415 246 q 369 -37 415 61 q 304 -143 349 -81 q 267 -203 278 -182 q 263 -233 257 -224 q 197 -206 232 -233 q 115 -117 161 -179 l 94 -85 q 58 -36 74 -53 q 19 -15 43 -19 q 51 74 51 8 l 51 139 q 72 309 53 233 q 125 457 92 385 l 133 476 q 89 490 110 490 q 69 488 83 490 l 190 583 q 267 751 244 686 l 267 1051 q 261 1092 267 1064 q 114 1019 218 1046 q 119 1011 111 1015 q 136 1007 126 1007 q 164 1019 153 1007 l 164 675 q 92 722 122 703 q 33 749 61 740 q 47 772 42 756 q 53 797 53 788 l 53 988 q 42 1060 53 1022 q 14 1111 31 1099 q 47 1107 29 1107 q 135 1124 89 1107 q 213 1169 182 1142 q 244 1221 244 1196 q 240 1238 244 1229 q 289 1154 289 1200 q 286 1132 289 1139 q 344 1092 307 1110 q 408 1072 381 1074 q 383 1023 389 1058 q 378 932 378 988 l 378 738 q 360 674 378 714 q 306 564 343 633 l 288 531 q 350 510 326 507 l 250 457 q 231 415 236 429 q 163 125 175 289 l 163 53 q 178 -18 163 21 q 213 -68 194 -57 q 190 -85 200 -74 q 181 -106 181 -96 q 185 -117 181 -112 q 250 -53 226 -83 q 294 18 274 -24 q 324 113 324 75 q 299 147 324 147 q 278 140 292 147 q 344 303 344 206 q 317 436 344 367 q 397 314 375 396 z "},"":{"ha":1107,"x_min":0,"x_max":1093,"o":"m 1061 35 q 1065 -21 1061 -6 q 1086 -53 1068 -36 q 1026 -81 1056 -57 q 926 -178 997 -106 q 710 -333 839 -268 q 442 -389 582 -399 l 440 -379 q 668 -251 601 -343 q 735 -40 735 -158 l 735 -6 q 606 88 658 33 q 556 178 554 143 l 561 181 q 622 115 574 142 q 715 89 671 89 q 735 90 729 89 l 735 389 q 726 458 733 440 q 703 485 719 476 q 726 511 719 493 q 735 581 733 529 l 735 696 q 606 789 657 735 q 556 879 554 843 l 560 882 q 626 810 572 840 q 735 771 681 779 l 735 842 q 615 910 665 871 q 540 989 564 949 q 519 1060 515 1029 l 524 1060 q 602 976 538 1011 q 735 931 667 942 l 735 1071 q 618 1125 664 1089 q 610 1119 614 1128 q 606 1096 606 1110 q 636 1035 606 1054 l 635 1032 q 583 1063 600 1036 q 551 1132 565 1090 q 539 1160 544 1160 q 487 1147 511 1161 q 450 1106 463 1133 q 438 1039 438 1075 q 453 961 438 996 l 450 958 q 389 1089 389 996 q 395 1152 389 1118 q 408 1215 401 1186 q 419 1279 419 1268 q 408 1300 419 1299 q 378 1278 400 1301 q 332 1206 357 1254 q 290 1088 307 1157 q 288 1065 288 1074 q 296 1027 288 1044 q 315 1010 304 1010 q 276 951 285 985 q 268 882 268 918 q 315 682 272 769 q 453 565 358 594 l 453 558 q 263 676 322 569 q 203 940 203 783 q 219 1111 203 1031 q 244 1195 229 1157 q 285 1290 258 1233 q 307 1341 301 1325 q 304 1358 313 1357 q 210 1308 260 1365 q 119 1160 160 1251 q 92 1076 103 1119 q 82 997 82 1033 q 91 949 82 964 q 119 935 100 935 q 142 939 129 935 q 97 865 111 904 q 86 797 83 825 q 203 501 103 633 q 489 324 303 369 l 488 317 q 208 418 318 329 q 49 639 99 507 q 0 921 0 771 q 21 1115 0 1024 q 28 1178 28 1147 q 21 1238 28 1210 q 56 1249 42 1238 q 86 1288 69 1261 q 243 1459 147 1393 q 444 1553 339 1525 q 649 1579 550 1582 l 649 1569 q 510 1492 558 1542 q 463 1375 463 1443 q 484 1303 463 1336 q 539 1249 506 1269 q 607 1229 572 1229 q 647 1238 628 1229 q 719 1144 649 1174 q 913 1121 789 1114 q 1009 1140 964 1122 q 1088 1185 1054 1158 l 1093 1181 q 1069 1121 1078 1153 q 1061 1040 1061 1089 l 1061 953 q 1071 865 1061 893 q 1083 847 1075 854 q 1069 846 1075 847 q 989 788 1032 835 q 1041 751 1011 764 q 1090 738 1071 739 q 1069 695 1076 724 q 1061 643 1061 667 l 1061 581 q 1069 511 1063 529 q 1093 485 1076 493 q 1069 458 1076 476 q 1061 389 1063 440 l 1061 35 m 846 704 q 900 799 871 756 q 947 861 929 843 q 950 900 950 872 l 950 979 q 937 1028 950 1014 q 906 1045 924 1043 q 846 1047 889 1047 l 846 704 m 950 307 q 940 353 947 340 q 919 372 933 365 q 940 392 933 379 q 950 438 947 404 l 950 707 l 935 718 q 872 599 897 661 q 846 490 847 538 l 846 289 q 854 219 847 238 q 878 193 861 201 q 854 167 861 185 q 846 97 847 149 l 846 -64 q 864 -104 846 -96 q 810 -127 833 -104 q 786 -174 786 -150 q 799 -199 786 -189 q 860 -159 824 -194 q 922 -69 896 -124 q 950 47 949 -15 l 950 307 z "},"":{"ha":1119,"x_min":28,"x_max":1119,"o":"m 1099 1115 q 1119 921 1119 1024 q 1070 639 1119 771 q 911 418 1021 507 q 632 317 801 329 l 631 324 q 917 501 817 369 q 1033 797 1017 633 q 1022 865 1036 825 q 978 939 1008 904 q 1000 935 990 935 q 1028 949 1019 935 q 1038 997 1038 964 q 1027 1076 1038 1033 q 1000 1160 1017 1119 q 910 1308 960 1251 q 815 1358 860 1365 q 813 1341 807 1357 q 835 1290 818 1325 q 876 1195 861 1233 q 900 1111 890 1157 q 917 940 917 1031 q 857 676 917 783 q 667 558 797 569 l 667 565 q 804 682 761 594 q 851 882 847 769 q 843 951 851 918 q 804 1010 835 985 q 824 1027 815 1010 q 832 1065 832 1044 q 829 1088 832 1074 q 788 1206 813 1157 q 741 1278 763 1254 q 711 1300 719 1301 q 700 1279 700 1299 q 711 1213 700 1268 q 731 1089 731 1138 q 669 958 731 996 l 667 961 q 682 1039 682 996 q 669 1106 682 1075 q 633 1147 657 1133 q 581 1160 608 1161 q 568 1132 575 1160 q 537 1063 554 1090 q 485 1032 519 1036 l 483 1035 q 514 1096 514 1054 q 510 1119 514 1110 q 501 1125 506 1128 q 385 1071 456 1089 l 385 931 q 517 976 453 942 q 596 1060 582 1011 l 600 1060 q 580 989 604 1029 q 505 910 556 949 q 385 842 454 871 l 385 771 q 493 810 439 779 q 560 882 547 840 l 564 879 q 519 799 565 847 q 404 704 474 750 q 344 658 372 682 q 296 614 317 635 l 274 593 l 274 1035 q 174 1074 215 1049 q 171 1050 171 1057 l 171 896 q 179 826 172 844 q 203 800 186 808 q 179 774 186 792 q 171 704 172 756 l 171 47 q 199 -69 172 -15 q 261 -159 225 -124 q 322 -199 297 -194 q 335 -174 335 -189 q 311 -127 335 -150 q 257 -104 288 -104 q 275 -64 275 -96 l 275 465 l 261 464 q 216 478 233 464 q 199 514 199 493 q 222 551 199 536 q 235 535 219 542 q 278 528 250 528 q 397 562 336 528 q 485 668 457 596 l 490 664 q 463 550 493 608 q 386 475 432 492 l 386 90 q 406 89 392 89 q 498 116 450 89 q 558 181 546 143 l 564 178 q 514 88 565 143 q 386 -6 463 33 l 386 -40 q 417 -183 386 -111 q 514 -308 447 -256 q 681 -369 581 -360 l 681 -379 q 626 -382 644 -382 q 387 -322 497 -382 q 194 -178 276 -262 q 94 -81 124 -106 q 35 -53 65 -57 q 56 -21 53 -36 q 60 35 60 -6 l 60 389 q 51 458 58 440 q 28 485 44 476 q 51 511 44 493 q 60 581 58 529 l 60 931 q 54 1022 60 986 q 29 1071 49 1057 q 76 1083 50 1072 q 126 1108 103 1093 q 94 1174 94 1140 q 129 1238 94 1207 q 152 1183 124 1208 q 227 1142 181 1157 q 319 1126 274 1126 l 333 1126 q 426 1158 382 1126 q 472 1238 471 1190 q 513 1229 490 1229 q 581 1249 547 1229 q 635 1303 614 1269 q 657 1375 657 1336 q 609 1492 657 1443 q 471 1569 561 1542 l 471 1579 q 675 1553 569 1582 q 876 1459 781 1525 q 1033 1288 972 1393 q 1064 1249 1050 1261 q 1099 1238 1078 1238 q 1092 1178 1092 1210 q 1099 1115 1092 1147 z "},"a":{"ha":443,"x_min":14,"x_max":429,"o":"m 390 129 q 425 -110 390 -72 q 318 -22 389 -115 q 251 25 289 17 q 260 35 253 28 q 274 55 268 42 q 279 88 279 68 l 279 290 q 265 340 279 319 q 313 348 289 339 q 336 369 338 357 q 282 358 313 369 q 224 319 253 347 q 175 254 194 292 l 175 169 q 182 106 175 129 q 210 68 189 82 q 173 44 188 63 q 148 8 158 26 q 133 -18 138 -11 q 77 -88 106 -68 q 14 -107 49 -108 q 50 -29 36 -93 q 64 104 64 35 l 64 389 q 56 458 63 440 q 32 485 49 476 q 56 511 49 493 q 64 581 63 529 l 64 832 q 58 923 64 888 q 33 972 53 958 q 96 990 60 974 q 154 1029 132 1007 q 203 1111 154 1071 q 199 1094 199 1103 q 239 1035 199 1065 q 334 987 279 1006 q 429 972 389 968 q 401 927 413 960 q 390 861 390 894 l 390 581 q 399 511 392 529 q 422 485 406 493 q 399 458 406 476 q 390 389 392 440 l 390 129 m 279 893 q 307 881 290 881 q 324 885 317 881 q 329 893 332 889 q 176 971 219 921 q 175 951 175 964 l 175 382 q 279 447 226 428 l 279 893 z "},"b":{"ha":432,"x_min":14,"x_max":418,"o":"m 386 160 q 390 105 386 121 q 411 72 393 89 q 377 59 392 71 q 339 22 363 47 q 268 -43 293 -24 q 174 -95 219 -82 q 74 -108 128 -108 l 14 -107 q 60 85 60 -51 l 60 389 q 51 458 58 440 q 28 485 44 476 q 51 511 44 493 q 60 581 58 529 l 60 956 q 94 932 76 932 q 113 940 110 932 q 38 987 61 960 q 15 1043 15 1014 q 26 1084 15 1065 q 53 1111 38 1103 q 93 1045 46 1076 q 222 994 140 1014 q 310 979 263 985 q 390 974 357 974 q 418 975 413 974 q 386 857 389 946 q 394 799 388 831 q 408 764 400 768 q 315 703 372 764 q 367 668 338 681 q 415 654 396 656 q 395 617 403 643 q 386 569 388 592 q 395 509 388 525 q 418 485 403 493 q 394 458 401 476 q 386 389 388 440 l 386 160 m 171 613 q 275 753 215 693 l 275 854 q 247 898 275 885 q 171 922 219 911 l 171 613 m 275 624 l 263 633 q 202 526 228 582 q 171 431 176 471 l 171 61 q 189 21 171 31 q 156 0 168 14 q 146 -22 144 -14 q 238 40 203 -1 q 275 172 274 82 l 275 624 z "},"c":{"ha":424,"x_min":14,"x_max":410,"o":"m 371 715 q 376 690 371 706 q 390 667 382 674 q 332 640 363 658 q 260 593 301 621 l 260 893 q 288 881 271 881 q 305 885 297 881 q 310 893 313 889 q 158 965 204 919 q 157 951 157 960 l 157 179 q 173 108 157 147 q 207 58 189 69 q 185 42 194 53 q 175 21 175 31 q 179 10 175 14 q 247 74 222 44 q 292 144 271 104 q 303 183 303 171 q 279 221 303 208 q 326 260 315 236 q 338 324 336 285 q 315 436 338 378 q 396 314 374 396 q 403 246 403 288 q 364 89 403 163 q 303 -10 347 57 q 262 -74 274 -53 q 257 -107 250 -96 q 191 -80 226 -107 q 110 10 156 -53 l 89 42 q 53 90 68 74 q 14 111 38 107 q 46 200 46 135 l 46 389 q 38 458 44 440 q 14 485 31 476 q 38 511 31 493 q 46 581 44 529 l 46 832 q 40 923 46 888 q 15 972 35 958 q 72 988 40 974 q 125 1021 103 1001 q 124 1033 124 1025 q 169 1111 124 1076 q 165 1096 165 1103 q 208 1036 165 1067 q 310 987 251 1006 q 410 972 368 968 q 382 927 393 960 q 371 861 371 894 l 371 715 z "},"d":{"ha":432,"x_min":14,"x_max":418,"o":"m 386 160 q 390 105 386 121 q 411 72 393 89 q 377 59 392 71 q 339 22 363 47 q 268 -43 293 -24 q 174 -95 219 -82 q 74 -108 128 -108 l 14 -107 q 60 85 60 -51 l 60 389 q 51 458 58 440 q 28 485 44 476 q 51 511 44 493 q 60 581 58 529 l 60 956 q 94 932 76 932 q 113 940 110 932 q 38 987 61 960 q 15 1043 15 1014 q 26 1084 15 1065 q 53 1111 38 1103 q 93 1045 46 1076 q 222 994 140 1014 q 310 979 263 985 q 390 974 357 974 q 418 975 413 974 q 386 856 385 942 l 386 581 q 394 511 388 529 q 418 485 401 493 q 394 458 401 476 q 386 389 388 440 l 386 160 m 275 854 q 247 898 275 885 q 171 922 219 911 l 171 61 q 189 21 171 31 q 156 0 168 14 q 146 -22 144 -14 q 238 40 203 -1 q 275 172 274 82 l 275 854 z "},"e":{"ha":424,"x_min":14,"x_max":410,"o":"m 371 813 q 376 787 371 803 q 390 764 382 771 q 332 737 363 756 q 260 690 301 718 l 260 772 l 260 893 q 288 881 271 881 q 305 885 297 881 q 310 893 313 889 q 158 965 204 919 q 157 951 157 960 l 157 554 l 224 635 q 281 596 250 611 q 336 581 311 581 q 364 589 351 581 q 328 512 351 542 q 272 482 304 482 q 224 499 251 482 q 183 515 197 515 q 165 500 171 515 q 157 446 160 485 l 157 179 q 173 108 157 147 q 207 58 189 69 q 185 42 194 53 q 175 21 175 31 q 179 10 175 14 q 247 74 222 44 q 292 144 271 104 q 303 183 303 171 q 279 221 303 208 q 326 260 315 236 q 338 324 336 285 q 315 436 338 378 q 396 314 374 396 q 403 246 403 288 q 364 89 403 163 q 303 -10 347 57 q 262 -74 274 -53 q 257 -107 250 -96 q 191 -80 226 -107 q 110 10 156 -53 l 89 42 q 53 90 68 74 q 14 111 38 107 q 46 200 46 135 l 46 389 q 38 458 44 440 q 14 485 31 476 q 38 511 31 493 q 46 581 44 529 l 46 832 q 40 923 46 888 q 15 972 35 958 q 72 988 40 974 q 125 1021 103 1001 q 124 1033 124 1025 q 169 1111 124 1076 q 165 1096 165 1103 q 208 1036 165 1067 q 310 987 251 1006 q 410 972 368 968 q 382 927 393 960 q 371 861 371 894 l 371 813 z "},"f":{"ha":442,"x_min":14,"x_max":428,"o":"m 389 813 q 394 787 389 803 q 408 764 400 771 q 350 737 381 756 q 278 690 319 718 l 278 772 l 278 893 q 306 881 289 881 q 323 885 315 881 q 328 893 331 889 q 176 965 222 919 q 175 951 175 960 l 175 557 l 239 635 q 296 596 265 611 q 351 581 326 581 q 379 589 367 581 q 343 512 367 542 q 288 482 319 482 q 239 499 267 482 q 199 515 213 515 q 183 506 189 515 q 175 471 178 496 l 175 169 q 182 106 175 129 q 210 68 189 82 q 173 44 188 63 q 148 8 158 26 q 133 -18 138 -11 q 77 -88 106 -68 q 14 -107 49 -108 q 50 -29 36 -93 q 64 104 64 35 l 64 389 q 56 458 63 440 q 32 485 49 476 q 56 511 49 493 q 64 581 63 529 l 64 832 q 58 923 64 888 q 33 972 53 958 q 90 988 58 974 q 143 1021 121 1001 q 142 1033 142 1025 q 188 1111 142 1076 q 183 1096 183 1103 q 226 1036 183 1067 q 328 987 269 1006 q 428 972 386 968 q 400 927 411 960 q 389 861 389 894 l 389 813 z "},"g":{"ha":438,"x_min":14,"x_max":424,"o":"m 385 715 q 390 690 385 706 q 404 667 396 674 q 346 640 376 658 q 274 593 315 621 l 274 893 q 301 881 285 881 q 319 885 311 881 q 324 893 326 889 q 172 965 218 919 q 171 951 171 960 l 171 61 q 189 21 171 31 q 156 0 168 14 q 146 -22 144 -14 q 238 40 203 -1 q 275 172 274 82 l 275 439 q 238 457 254 439 q 222 500 222 475 q 244 551 222 529 q 265 523 239 533 q 335 513 292 513 q 413 522 379 513 q 386 400 386 503 l 386 160 q 390 105 386 121 q 411 72 393 89 q 377 59 392 71 q 339 22 363 47 q 268 -43 293 -24 q 174 -95 219 -82 q 74 -108 128 -108 l 14 -107 q 60 85 60 -51 l 60 389 q 51 458 58 440 q 28 485 44 476 q 51 511 44 493 q 60 581 58 529 l 60 832 q 54 923 60 888 q 29 972 49 958 q 85 988 54 974 q 139 1021 117 1001 q 138 1033 138 1025 q 183 1111 138 1076 q 179 1096 179 1103 q 222 1036 179 1067 q 324 987 265 1006 q 424 972 382 968 q 396 927 407 960 q 385 861 385 894 l 385 715 z "},"h":{"ha":439,"x_min":14,"x_max":425,"o":"m 390 129 q 425 -110 390 -72 q 318 -22 389 -115 q 251 25 289 17 q 260 35 253 28 q 274 55 268 42 q 279 88 279 68 l 279 290 q 265 340 279 319 q 313 348 289 339 q 336 369 338 357 q 282 358 313 369 q 224 319 253 347 q 175 254 194 292 l 175 169 q 182 106 175 129 q 210 68 189 82 q 173 44 188 63 q 148 8 158 26 q 133 -18 138 -11 q 77 -88 106 -68 q 14 -107 49 -108 q 50 -29 36 -93 q 64 104 64 35 l 64 389 q 56 458 63 440 q 32 485 49 476 q 56 511 49 493 q 64 581 63 529 l 64 915 q 101 889 83 889 q 117 896 114 889 q 64 938 85 915 q 33 986 46 958 q 21 1040 21 1014 q 58 1111 21 1086 q 57 1093 57 1104 q 110 1013 57 1042 q 200 992 147 992 q 181 957 188 983 q 175 896 175 931 l 175 382 q 279 447 226 428 l 279 914 q 274 969 279 944 q 263 1001 268 994 q 336 1039 304 1011 l 357 1060 q 396 1099 379 1085 q 425 1111 413 1113 q 390 914 390 1074 l 390 581 q 399 511 392 529 q 422 485 406 493 q 399 458 406 476 q 390 389 392 440 l 390 129 z "},"i":{"ha":224,"x_min":14,"x_max":210,"o":"m 175 169 q 182 106 175 129 q 210 68 189 82 q 173 44 188 63 q 148 8 158 26 q 133 -18 138 -11 q 77 -88 106 -68 q 14 -107 49 -108 q 50 -29 36 -93 q 64 104 64 35 l 64 389 q 56 458 63 440 q 32 485 49 476 q 56 511 49 493 q 64 581 63 529 l 64 915 q 101 889 83 889 q 117 896 114 889 q 64 938 85 915 q 33 986 46 958 q 21 1040 21 1014 q 58 1111 21 1086 q 57 1093 57 1104 q 110 1013 57 1042 q 200 992 147 992 q 181 957 188 983 q 175 896 175 931 l 175 581 q 183 511 176 529 q 207 485 190 493 q 183 458 190 476 q 175 389 176 440 l 175 169 z "},"j":{"ha":403,"x_min":14,"x_max":389,"o":"m 357 200 q 389 111 357 135 q 350 90 365 107 q 314 42 335 74 l 293 10 q 212 -80 247 -53 q 146 -107 176 -107 q 141 -69 153 -94 q 99 7 129 -43 q 53 89 47 99 q 14 246 14 163 q 21 314 14 288 q 101 436 43 396 q 79 324 79 378 q 91 260 81 285 q 138 221 101 236 q 114 183 114 208 q 125 144 114 171 q 168 66 151 90 q 224 10 185 42 q 228 21 228 14 q 218 42 228 31 q 196 58 208 53 q 230 108 214 69 q 246 179 246 147 l 246 389 q 238 458 244 440 q 214 485 231 476 q 238 511 231 493 q 246 581 244 529 l 246 915 q 283 889 265 889 q 299 896 296 889 q 246 938 267 915 q 215 986 228 958 q 203 1040 203 1014 q 240 1111 203 1086 q 239 1093 239 1104 q 292 1013 239 1042 q 382 992 329 992 q 363 957 369 983 q 357 896 357 931 l 357 581 q 365 511 358 529 q 389 485 372 493 q 365 458 372 476 q 357 389 358 440 l 357 200 z "},"k":{"ha":439,"x_min":14,"x_max":425,"o":"m 390 129 q 425 -110 390 -72 q 318 -22 389 -115 q 251 25 289 17 q 260 35 253 28 q 274 55 268 42 q 279 88 279 68 l 279 336 q 265 349 272 340 q 253 367 257 357 q 201 280 222 324 q 175 201 181 236 l 175 169 q 182 106 175 129 q 210 68 189 82 q 173 44 188 63 q 148 8 158 26 q 133 -18 138 -11 q 77 -88 106 -68 q 14 -107 49 -108 q 50 -29 36 -93 q 64 104 64 35 l 64 389 q 56 458 63 440 q 32 485 49 476 q 56 511 49 493 q 64 581 63 529 l 64 915 q 101 889 83 889 q 117 896 114 889 q 64 938 85 915 q 33 986 46 958 q 21 1040 21 1014 q 58 1111 21 1086 q 57 1093 57 1104 q 110 1013 57 1042 q 200 992 147 992 q 181 957 188 983 q 175 896 175 931 l 175 365 q 244 463 206 419 q 318 532 282 507 q 308 538 315 538 q 276 511 293 538 q 279 561 279 522 l 279 914 q 274 969 279 944 q 263 1001 268 994 q 336 1039 304 1011 l 357 1060 q 396 1099 379 1085 q 425 1111 413 1113 q 390 914 390 1074 l 390 603 q 413 497 390 513 q 325 450 376 497 q 367 402 336 424 q 417 383 399 381 q 394 338 397 360 q 390 281 390 315 l 390 129 z "},"l":{"ha":414,"x_min":14,"x_max":400,"o":"m 393 314 q 400 246 400 288 q 361 89 400 163 q 315 7 367 99 q 273 -69 285 -43 q 268 -107 261 -94 q 202 -80 238 -107 q 121 10 167 -53 l 100 42 q 64 90 79 74 q 25 111 49 107 q 57 200 57 135 l 57 389 q 49 458 56 440 q 25 485 42 476 q 49 511 42 493 q 57 581 56 529 l 57 915 q 94 889 76 889 q 110 896 107 889 q 57 938 78 915 q 26 986 39 958 q 14 1040 14 1014 q 51 1111 14 1086 q 50 1093 50 1104 q 103 1013 50 1042 q 193 992 140 992 q 174 957 181 983 q 168 896 168 931 l 168 179 q 184 108 168 147 q 218 58 200 69 q 196 42 206 53 q 186 21 186 31 q 190 10 186 14 q 246 66 229 42 q 289 144 263 90 q 300 183 300 171 q 276 221 300 208 q 323 260 313 236 q 335 324 333 285 q 313 436 335 378 q 393 314 371 396 z "},"m":{"ha":658,"x_min":14,"x_max":644,"o":"m 606 129 q 640 -110 606 -72 q 533 -22 604 -115 q 467 25 504 17 q 476 35 468 28 q 489 55 483 42 q 494 88 494 68 l 494 893 q 522 881 506 881 q 540 885 532 881 q 544 893 547 889 q 403 944 482 901 q 390 879 392 917 l 390 543 q 463 510 435 508 l 390 467 l 390 51 q 432 -42 432 6 q 396 -107 432 -83 q 380 -60 400 -86 q 333 -14 360 -33 q 299 3 315 -1 q 254 7 283 7 q 273 42 267 15 q 279 103 279 68 l 279 468 q 267 476 276 469 q 247 487 257 483 q 229 490 238 490 q 210 488 217 490 l 279 549 l 279 854 q 251 898 279 885 q 175 922 224 911 l 175 169 q 182 106 175 129 q 210 68 189 82 q 173 44 188 63 q 148 8 158 26 q 133 -18 138 -11 q 77 -88 106 -68 q 14 -107 49 -108 q 50 -29 36 -93 q 64 104 64 35 l 64 389 q 56 458 63 440 q 32 485 49 476 q 56 511 49 493 q 64 581 63 529 l 64 956 q 99 932 81 932 q 117 940 114 932 q 42 987 65 960 q 19 1043 19 1014 q 31 1084 19 1065 q 57 1111 42 1103 q 97 1045 50 1076 q 226 994 144 1014 q 346 975 271 983 l 346 976 q 406 1018 381 988 q 443 1085 431 1049 q 480 1033 447 1058 q 558 990 513 1007 q 644 972 604 974 q 617 927 628 960 q 606 861 606 894 l 606 581 q 614 511 607 529 q 638 485 621 493 q 614 458 621 476 q 606 389 607 440 l 606 129 z "},"n":{"ha":439,"x_min":14,"x_max":425,"o":"m 390 129 q 425 -110 390 -72 q 318 -22 389 -115 q 251 25 289 17 q 260 35 253 28 q 274 55 268 42 q 279 88 279 68 l 279 854 q 251 898 279 885 q 175 922 224 911 l 175 169 q 182 106 175 129 q 210 68 189 82 q 173 44 188 63 q 148 8 158 26 q 133 -18 138 -11 q 77 -88 106 -68 q 14 -107 49 -108 q 50 -29 36 -93 q 64 104 64 35 l 64 389 q 56 458 63 440 q 32 485 49 476 q 56 511 49 493 q 64 581 63 529 l 64 956 q 99 932 81 932 q 117 940 114 932 q 42 987 65 960 q 19 1043 19 1014 q 31 1084 19 1065 q 57 1111 42 1103 q 97 1045 50 1076 q 226 994 144 1014 q 339 976 278 982 q 422 975 400 971 q 390 869 390 943 l 390 581 q 399 511 392 529 q 422 485 406 493 q 399 458 406 476 q 390 389 392 440 l 390 129 z "},"o":{"ha":425,"x_min":14,"x_max":411,"o":"m 372 581 q 381 511 374 529 q 404 485 388 493 q 381 458 388 476 q 372 389 374 440 l 372 196 q 383 147 372 169 q 404 113 393 125 q 346 86 369 101 q 300 38 322 71 q 267 -23 282 13 q 251 -85 251 -58 q 257 -107 251 -93 q 191 -80 226 -107 q 110 10 156 -53 l 89 42 q 53 90 68 74 q 14 111 38 107 q 46 200 46 135 l 46 389 q 38 458 44 440 q 14 485 31 476 q 38 511 31 493 q 46 581 44 529 l 46 832 q 40 923 46 888 q 15 972 35 958 q 78 990 42 974 q 136 1029 114 1007 q 185 1111 136 1071 q 181 1094 181 1103 q 221 1035 181 1065 q 316 987 261 1006 q 411 972 371 968 q 383 927 394 960 q 372 861 372 894 l 372 581 m 261 893 q 289 881 272 881 q 306 885 299 881 q 311 893 314 889 q 158 971 201 921 q 157 951 157 964 l 157 156 q 172 98 157 125 q 207 58 188 71 q 185 42 194 53 q 175 21 175 31 q 179 10 175 14 q 235 75 210 28 q 261 156 261 122 l 261 893 z "},"p":{"ha":436,"x_min":14,"x_max":422,"o":"m 390 717 q 413 611 390 626 q 317 549 374 611 q 219 404 261 486 q 175 271 176 322 l 175 169 q 182 106 175 129 q 210 68 189 82 q 173 44 188 63 q 148 8 158 26 q 133 -18 138 -11 q 77 -88 106 -68 q 14 -107 49 -108 q 50 -29 36 -93 q 64 104 64 35 l 64 389 q 56 458 63 440 q 32 485 49 476 q 56 511 49 493 q 64 581 63 529 l 64 956 q 99 932 81 932 q 117 940 114 932 q 42 987 65 960 q 19 1043 19 1014 q 31 1084 19 1065 q 57 1111 42 1103 q 97 1045 50 1076 q 226 994 144 1014 q 314 979 267 985 q 394 974 361 974 q 422 975 417 974 q 390 861 389 942 l 390 717 m 175 467 q 242 572 204 524 q 318 646 279 619 q 308 650 317 650 q 276 625 293 650 q 279 675 279 644 l 279 854 q 251 898 279 885 q 175 922 224 911 l 175 467 z "},"q":{"ha":425,"x_min":14,"x_max":411,"o":"m 372 581 q 381 511 374 529 q 404 485 388 493 q 381 458 388 476 q 372 389 374 440 l 372 196 q 383 147 372 169 q 404 113 393 125 q 346 86 369 101 q 300 38 322 71 q 260 -42 274 1 q 361 -72 311 -72 q 404 -64 386 -72 q 303 -118 374 -118 q 238 -104 269 -118 q 110 10 183 -92 l 89 42 q 53 90 68 74 q 14 111 38 107 q 46 200 46 135 l 46 389 q 38 458 44 440 q 14 485 31 476 q 38 511 31 493 q 46 581 44 529 l 46 832 q 40 923 46 888 q 15 972 35 958 q 78 990 42 974 q 136 1029 114 1007 q 185 1111 136 1071 q 181 1094 181 1103 q 221 1035 181 1065 q 316 987 261 1006 q 411 972 371 968 q 383 927 394 960 q 372 861 372 894 l 372 581 m 261 893 q 289 881 272 881 q 306 885 299 881 q 311 893 314 889 q 158 971 201 921 q 157 951 157 964 l 157 156 q 172 98 157 125 q 207 58 188 71 q 185 42 194 53 q 175 21 175 31 q 179 10 175 14 q 235 75 210 28 q 261 156 261 122 l 261 893 z "},"r":{"ha":439,"x_min":14,"x_max":425,"o":"m 390 129 q 425 -110 390 -72 q 318 -22 389 -115 q 251 25 289 17 q 260 35 253 28 q 274 55 268 42 q 279 88 279 68 l 279 322 q 263 338 272 326 q 249 361 253 350 q 175 201 185 269 l 175 169 q 182 106 175 129 q 210 68 189 82 q 173 44 188 63 q 148 8 158 26 q 133 -18 138 -11 q 77 -88 106 -68 q 14 -107 49 -108 q 50 -29 36 -93 q 64 104 64 35 l 64 389 q 56 458 63 440 q 32 485 49 476 q 56 511 49 493 q 64 581 63 529 l 64 956 q 99 932 81 932 q 117 940 114 932 q 42 987 65 960 q 19 1043 19 1014 q 31 1084 19 1065 q 57 1111 42 1103 q 97 1045 50 1076 q 226 994 144 1014 q 314 979 267 985 q 394 974 361 974 q 422 975 417 974 q 390 879 394 947 l 390 603 q 413 497 390 513 q 322 447 375 497 q 343 409 325 428 q 382 378 361 390 q 417 369 403 367 q 394 324 397 346 q 390 267 390 301 l 390 129 m 175 365 q 242 461 204 417 q 317 532 281 506 q 307 536 315 536 q 276 511 290 536 q 279 561 279 522 l 279 854 q 251 898 279 885 q 175 922 224 911 l 175 365 z "},"s":{"ha":438,"x_min":14,"x_max":424,"o":"m 385 813 q 390 787 385 803 q 404 764 396 771 q 346 737 376 756 q 274 690 315 718 l 274 772 l 274 893 q 301 881 285 881 q 319 885 311 881 q 324 893 326 889 q 172 965 218 919 q 171 951 171 960 l 171 751 q 272 640 171 640 q 334 648 300 640 q 375 657 368 656 q 391 661 382 658 q 410 665 400 664 q 394 620 400 654 q 386 549 388 586 q 396 504 389 517 q 417 485 403 492 q 396 465 403 478 q 386 419 389 453 l 386 160 q 390 105 386 121 q 411 72 393 89 q 377 59 392 71 q 339 22 363 47 q 268 -43 293 -24 q 174 -95 219 -82 q 74 -108 128 -108 l 14 -107 q 60 85 60 -51 l 60 390 q 26 629 60 593 q 132 542 63 635 q 199 494 161 503 q 190 485 197 492 q 176 465 182 478 q 171 432 171 451 l 171 61 q 189 21 171 31 q 156 0 168 14 q 146 -22 144 -14 q 238 40 203 -1 q 275 172 274 82 l 275 593 q 211 582 247 582 q 103 623 147 582 q 60 738 60 664 l 60 832 q 54 923 60 888 q 29 972 49 958 q 85 988 54 974 q 139 1021 117 1001 q 138 1033 138 1025 q 183 1111 138 1076 q 179 1096 179 1103 q 222 1036 179 1067 q 324 987 265 1006 q 424 972 382 968 q 396 927 407 960 q 385 861 385 894 l 385 813 z "},"t":{"ha":511,"x_min":14,"x_max":497,"o":"m 497 972 q 456 861 469 951 q 449 786 449 813 q 458 715 449 742 q 478 676 467 688 q 378 763 408 700 q 347 907 347 826 q 375 894 358 894 q 392 899 385 894 q 397 907 400 903 q 311 956 346 924 l 311 581 q 319 511 313 529 q 343 485 326 493 q 319 458 326 476 q 311 389 313 440 l 311 169 q 318 106 311 129 q 346 68 325 82 q 309 44 324 63 q 284 8 294 26 q 269 -18 274 -11 q 213 -88 242 -68 q 150 -107 185 -108 q 186 -29 172 -93 q 200 104 200 35 l 200 389 q 192 458 199 440 q 168 485 185 476 q 192 511 185 493 q 200 581 199 529 l 200 956 q 114 907 165 924 q 119 899 111 903 q 136 894 126 894 q 164 907 153 894 q 133 763 164 826 q 33 676 103 700 q 53 715 44 688 q 63 786 63 742 q 56 861 63 813 q 14 972 42 951 q 38 971 22 971 q 164 1007 104 971 q 256 1111 224 1043 q 358 1001 290 1038 q 497 972 426 964 z "},"u":{"ha":432,"x_min":14,"x_max":418,"o":"m 383 196 q 394 147 383 169 q 415 113 404 125 q 357 86 381 101 q 311 38 333 71 q 278 -23 293 13 q 263 -85 263 -58 q 268 -107 263 -93 q 202 -80 238 -107 q 121 10 167 -53 l 100 42 q 64 90 79 74 q 25 111 49 107 q 57 200 57 135 l 57 389 q 49 458 56 440 q 25 485 42 476 q 49 511 42 493 q 57 581 56 529 l 57 915 q 94 889 76 889 q 110 896 107 889 q 57 938 78 915 q 26 986 39 958 q 14 1040 14 1014 q 51 1111 14 1086 q 50 1093 50 1104 q 103 1013 50 1042 q 193 992 140 992 q 174 957 181 983 q 168 896 168 931 l 168 156 q 183 98 168 125 q 218 58 199 71 q 193 35 203 51 q 190 10 183 19 q 246 78 219 32 q 272 156 272 125 l 272 914 q 267 969 272 944 q 256 1001 261 994 q 329 1039 297 1011 l 350 1060 q 389 1099 372 1085 q 418 1111 406 1113 q 383 914 383 1074 l 383 581 q 392 511 385 529 q 415 485 399 493 q 392 458 399 476 q 383 389 385 440 l 383 196 m 186 7 z "},"v":{"ha":497,"x_min":14,"x_max":483,"o":"m 449 581 q 457 511 450 529 q 481 485 464 493 q 457 458 464 476 q 449 389 450 440 l 449 201 q 347 -58 449 13 q 199 -108 274 -108 q 168 -107 179 -108 q 188 -18 188 -82 q 181 85 188 19 l 140 394 l 140 389 q 123 458 132 440 q 97 485 114 476 q 115 504 110 492 q 119 549 121 517 l 71 915 q 113 889 93 889 q 126 896 124 889 q 69 938 90 917 q 30 992 46 960 q 14 1053 14 1024 q 42 1111 14 1089 q 106 1013 40 1046 q 199 992 146 992 q 183 932 183 981 q 185 896 183 908 l 288 61 q 310 25 292 35 q 278 3 288 18 q 272 -22 269 -12 q 324 33 310 -8 q 338 172 338 74 l 338 914 q 332 969 338 944 q 321 1001 326 994 q 394 1039 363 1011 l 415 1060 q 454 1099 438 1085 q 483 1111 471 1113 q 449 914 449 1074 l 449 581 z "},"w":{"ha":647,"x_min":14,"x_max":633,"o":"m 599 196 q 609 147 599 169 q 631 113 619 125 q 572 86 596 101 q 526 38 549 71 q 493 -23 508 13 q 478 -85 478 -58 q 483 -107 478 -93 q 417 -80 453 -107 q 336 10 382 -53 l 314 42 l 311 38 q 278 -23 293 13 q 263 -85 263 -58 q 268 -107 263 -93 q 202 -80 238 -107 q 121 10 167 -53 l 100 42 q 64 90 79 74 q 25 111 49 107 q 57 200 57 135 l 57 389 q 49 458 56 440 q 25 485 42 476 q 49 511 42 493 q 57 581 56 529 l 57 915 q 94 889 76 889 q 110 896 107 889 q 57 938 78 915 q 26 986 39 958 q 14 1040 14 1014 q 51 1111 14 1086 q 50 1093 50 1104 q 103 1013 50 1042 q 193 992 140 992 q 174 957 181 983 q 168 896 168 931 l 168 156 q 183 98 168 125 q 218 58 199 71 q 196 42 206 53 q 186 21 186 31 q 190 10 186 14 q 247 75 221 28 q 272 156 272 122 l 272 474 q 229 490 249 490 q 211 488 218 490 l 272 542 l 272 914 q 238 1111 272 1074 q 267 1099 250 1113 q 306 1060 283 1085 l 326 1039 q 400 1001 358 1011 q 389 969 394 994 q 383 914 383 944 l 383 550 q 464 510 435 508 l 383 463 l 383 265 l 383 246 l 383 156 q 399 98 383 125 q 433 58 414 71 q 411 42 421 53 q 401 21 401 31 q 406 10 401 14 q 462 75 436 28 q 488 156 488 122 l 488 914 q 482 969 488 944 q 471 1001 476 994 q 544 1039 513 1011 l 565 1060 q 604 1099 588 1085 q 633 1111 621 1113 q 599 914 599 1074 l 599 581 q 607 511 600 529 q 631 485 614 493 q 607 458 614 476 q 599 389 600 440 l 599 196 z "},"x":{"ha":439,"x_min":14,"x_max":425,"o":"m 390 129 q 425 -110 390 -72 q 318 -22 389 -115 q 251 25 289 17 q 260 35 253 28 q 274 55 268 42 q 279 88 279 68 l 279 551 q 263 590 279 574 q 218 619 247 606 q 175 535 175 583 l 175 169 q 182 106 175 129 q 210 68 189 82 q 173 44 188 63 q 148 8 158 26 q 133 -18 138 -11 q 77 -88 106 -68 q 14 -107 49 -108 q 50 -29 36 -93 q 64 104 64 35 l 64 389 q 56 458 64 440 q 32 485 49 476 q 56 511 49 493 q 64 581 64 529 q 86 619 64 603 q 147 651 108 635 q 85 691 107 669 q 64 744 64 713 l 64 915 q 101 889 83 889 q 117 896 114 889 q 64 938 85 915 q 33 986 46 958 q 21 1040 21 1014 q 58 1111 21 1086 q 57 1093 57 1104 q 110 1013 57 1042 q 200 992 147 992 q 181 957 188 983 q 175 896 175 931 l 175 761 q 229 686 175 714 q 279 749 279 713 l 279 914 q 274 969 279 944 q 263 1001 268 994 q 336 1039 304 1011 l 357 1060 q 396 1099 379 1085 q 425 1111 413 1113 q 390 914 390 1074 l 390 761 q 365 707 389 726 q 286 660 340 688 q 365 624 339 640 q 390 581 390 608 q 398 511 390 529 q 422 485 406 493 q 398 458 406 476 q 390 389 390 440 l 390 129 z "},"y":{"ha":435,"x_min":14,"x_max":421,"o":"m 386 160 q 390 105 386 121 q 411 72 393 89 q 377 59 392 71 q 339 22 363 47 q 268 -43 293 -24 q 174 -95 219 -82 q 74 -108 128 -108 l 14 -107 q 60 85 60 -51 l 60 390 l 60 438 q 31 629 60 599 q 72 611 49 632 q 132 542 96 590 q 199 494 161 503 q 190 485 197 492 q 176 465 182 478 q 171 432 171 451 l 171 61 q 189 21 171 31 q 156 0 168 14 q 146 -22 144 -14 q 238 40 203 -1 q 275 172 274 82 l 275 494 q 192 545 244 503 q 99 641 139 588 q 60 738 60 694 l 60 915 q 97 889 79 889 q 113 896 110 889 q 60 938 81 915 q 29 986 42 958 q 17 1040 17 1014 q 54 1111 17 1086 q 53 1093 53 1104 q 106 1013 53 1042 q 196 992 143 992 q 177 957 183 983 q 171 896 171 931 l 171 751 q 275 592 181 654 l 275 914 q 269 969 275 944 q 258 1001 264 994 q 332 1039 300 1011 l 353 1060 q 392 1099 375 1085 q 421 1111 408 1113 q 386 914 386 1074 l 386 581 q 394 511 388 529 q 418 485 401 493 q 394 458 401 476 q 386 389 388 440 l 386 160 z "},"z":{"ha":422,"x_min":14,"x_max":408,"o":"m 401 314 q 408 246 408 288 q 369 89 408 163 q 314 0 346 43 q 269 -72 282 -47 q 263 -107 256 -96 q 197 -80 232 -107 q 115 10 161 -53 l 94 42 q 58 90 74 74 q 19 111 43 107 q 57 165 33 118 q 99 275 81 213 l 156 478 q 117 490 133 490 q 99 488 113 490 l 178 558 l 281 924 q 265 965 282 938 q 114 893 221 921 q 119 885 111 889 q 136 881 126 881 q 164 893 153 881 l 164 715 q 169 690 164 706 q 183 667 175 674 q 125 640 156 658 q 53 593 94 621 l 53 675 l 53 861 q 42 927 53 894 q 14 972 31 960 q 114 987 56 968 q 215 1036 172 1006 q 258 1096 258 1067 q 254 1111 258 1103 q 299 1035 299 1076 q 290 999 299 1018 q 348 962 314 978 q 408 944 382 946 q 375 868 394 931 q 343 751 356 806 q 296 568 342 746 l 288 536 q 351 510 328 508 l 267 460 l 188 185 q 178 129 178 154 q 213 58 178 79 q 190 42 200 53 q 181 21 181 31 q 185 10 181 14 q 267 93 235 50 q 297 144 282 114 q 308 183 308 171 q 285 221 308 208 q 331 260 321 236 q 343 324 342 285 q 321 436 343 378 q 401 314 379 396 z "},"":{"ha":424,"x_min":-111,"x_max":410,"o":"m 371 813 q 376 787 371 803 q 390 764 382 771 q 332 737 363 756 q 260 690 301 718 l 260 772 l 260 893 q 288 881 271 881 q 305 885 297 881 q 310 893 313 889 q 203 942 250 907 q 158 974 163 971 q 157 951 157 965 l 157 554 l 224 635 q 281 596 250 611 q 336 581 311 581 q 364 589 351 581 q 328 512 351 542 q 272 482 304 482 q 224 499 251 482 q 183 515 197 515 q 165 500 171 515 q 157 446 160 485 l 157 179 q 173 108 157 147 q 207 58 189 69 q 185 42 194 53 q 175 21 175 31 q 179 10 175 14 q 247 74 222 44 q 292 144 271 104 q 303 183 303 171 q 279 221 303 208 q 326 260 315 236 q 338 324 336 285 q 315 436 338 378 q 396 314 374 396 q 404 242 404 281 q 364 89 404 160 q 333 43 356 76 q 301 -11 311 10 q 292 -60 292 -32 q 260 -54 279 -54 q 208 -62 235 -54 q 167 -76 181 -69 q 5 -196 78 -121 q -106 -375 -68 -271 q -55 -187 -111 -274 q 82 -21 1 -101 l 110 10 l 89 42 q 54 90 69 74 q 14 111 39 107 q 46 200 46 135 l 46 389 q 38 458 44 440 q 14 485 31 476 q 38 511 31 493 q 46 581 44 529 l 46 832 q 40 923 46 888 q 15 972 35 958 q 63 984 36 974 q 111 1010 89 994 q 50 1067 64 1049 q -4 1197 -4 1132 q 47 1331 -4 1263 q 35 1256 35 1289 q 53 1181 35 1215 q 113 1111 72 1147 q 217 1040 156 1074 q 333 988 279 1007 q 410 972 388 969 q 382 927 393 960 q 371 861 371 894 l 371 813 z "},"":{"ha":439,"x_min":-15,"x_max":549,"o":"m 404 -56 q 510 -231 472 -151 q 542 -375 549 -310 q 453 -222 519 -308 q 335 -107 386 -135 q 239 -78 283 -78 q 208 -81 231 -78 q 234 -57 213 -78 q 267 13 256 -36 q 279 136 279 61 l 279 546 q 271 615 278 597 q 247 642 264 633 q 271 668 264 650 q 279 738 278 686 l 279 886 q 258 920 279 911 q 213 933 238 929 q 175 939 188 936 l 175 254 l 176 254 l 176 143 q 181 92 176 113 q 192 65 186 72 q 160 76 175 76 q 135 65 144 76 q 126 35 126 53 q 133 8 126 21 q 153 -12 140 -6 q 126 -42 136 -29 q 107 -64 115 -56 q 49 -122 72 -106 q -15 -140 26 -139 q 47 -25 29 -118 q 65 163 64 68 l 64 163 l 64 389 q 56 458 63 440 q 32 485 49 476 q 56 511 49 493 q 64 581 63 529 l 64 956 q 99 932 81 932 q 117 940 114 932 q 42 987 65 960 q 19 1043 19 1014 q 31 1084 19 1065 q 57 1111 42 1103 q 81 1054 51 1082 q 161 1014 110 1026 q 210 1007 192 1007 q 246 1012 231 1007 q 286 1028 261 1017 q 358 1093 325 1044 q 407 1206 390 1142 q 419 1331 424 1271 q 446 1214 446 1282 q 390 1001 446 1113 l 390 581 q 399 511 392 529 q 422 485 406 493 q 399 458 406 476 q 390 389 392 440 l 390 200 q 422 111 390 135 q 385 26 385 81 q 404 -56 385 -14 z "},"":{"ha":863,"x_min":-650,"x_max":1508,"o":"m 388 1628 q 357 1658 368 1639 q 346 1700 346 1678 q 370 1758 346 1733 q 429 1782 394 1782 q 487 1758 463 1782 q 511 1700 511 1733 q 501 1659 511 1678 q 472 1629 490 1640 l 472 1592 l 406 1619 l 389 1628 l 388 1628 m 429 1740 q 401 1728 414 1740 q 389 1701 389 1717 q 401 1674 389 1686 q 429 1661 414 1661 q 456 1674 444 1661 q 468 1701 468 1686 q 456 1728 468 1717 q 429 1740 444 1740 m 388 1610 l 472 1575 l 472 1569 l 388 1532 l 388 1610 m 113 1135 q 95 1157 111 1144 q 65 1172 79 1169 q -1 1181 33 1181 q -62 1169 -40 1181 q -79 1132 -85 1157 q -101 1156 -101 1136 q -82 1214 -101 1172 q -65 1265 -65 1253 q -76 1282 -65 1278 q -106 1286 -89 1286 q -172 1265 -143 1286 q -185 1254 -181 1260 q -189 1242 -189 1249 q -185 1226 -189 1235 q -201 1228 -190 1228 q -235 1222 -222 1228 q -250 1214 -247 1215 q -312 1121 -312 1182 l -318 1118 q -331 1160 -331 1136 q -299 1233 -331 1197 q -211 1317 -267 1269 q -167 1356 -181 1342 q -153 1379 -153 1369 q -172 1395 -153 1388 q -219 1403 -190 1403 q -312 1379 -265 1403 q -335 1358 -324 1374 q -347 1328 -347 1342 q -383 1338 -361 1338 q -425 1331 -408 1338 q -566 1242 -510 1297 q -643 1108 -622 1186 l -650 1108 q -562 1307 -649 1221 q -307 1474 -475 1393 q -258 1525 -265 1492 q -178 1511 -240 1511 q -137 1515 -151 1511 q -98 1528 -115 1522 q -68 1538 -81 1533 q 12 1563 -19 1554 q 76 1571 43 1571 q 113 1568 88 1571 l 114 1561 q 11 1499 42 1538 q -19 1394 -19 1460 q -17 1353 -19 1383 q 4 1292 -14 1322 q 47 1244 22 1263 q 94 1225 72 1225 q 111 1229 103 1225 q 118 1206 107 1219 q 139 1185 129 1192 q 213 1142 182 1156 q 289 1119 243 1128 q 279 1167 289 1135 q 253 1217 269 1200 l 258 1222 q 321 1051 321 1172 q 256 1076 288 1060 q 219 1094 225 1092 q 160 1125 194 1110 q 113 1135 140 1135 m 1165 1474 q 1420 1307 1333 1393 q 1508 1108 1507 1221 l 1501 1108 q 1424 1242 1481 1186 q 1283 1331 1368 1297 q 1242 1338 1265 1338 q 1206 1328 1219 1338 q 1194 1358 1206 1342 q 1171 1379 1182 1374 q 1076 1404 1121 1404 q 1039 1399 1056 1404 q 1014 1386 1022 1393 q 1019 1362 1006 1378 q 1069 1317 1033 1346 q 1157 1233 1125 1269 q 1189 1160 1189 1197 q 1176 1118 1189 1136 l 1171 1121 q 1108 1214 1171 1182 q 1093 1222 1106 1215 q 1060 1228 1081 1228 q 1043 1226 1049 1228 q 1047 1242 1047 1235 q 1043 1254 1047 1249 q 1031 1265 1039 1260 q 964 1286 1001 1286 q 935 1282 947 1286 q 924 1265 924 1278 q 940 1215 924 1254 q 960 1156 960 1174 q 938 1132 960 1136 q 921 1169 943 1157 q 860 1181 899 1181 q 793 1172 825 1181 q 763 1157 779 1169 q 746 1135 747 1144 q 699 1125 718 1135 q 639 1094 664 1110 q 602 1076 633 1092 q 538 1051 571 1060 q 600 1222 538 1172 l 606 1217 q 579 1167 589 1200 q 569 1119 569 1135 q 646 1142 615 1128 q 719 1185 676 1156 q 740 1206 729 1192 q 747 1229 751 1219 q 764 1225 756 1225 q 811 1244 786 1225 q 854 1292 836 1263 q 875 1353 872 1322 q 878 1394 878 1383 q 847 1499 878 1460 q 744 1561 817 1538 l 746 1568 q 782 1571 771 1571 q 847 1563 815 1571 q 926 1538 878 1554 q 956 1528 939 1533 q 996 1515 974 1522 q 1036 1511 1011 1511 q 1117 1525 1099 1511 q 1165 1474 1124 1492 m 472 1458 l 388 1501 l 388 1506 l 472 1549 l 472 1458 m 124 1258 q 119 1292 119 1278 q 134 1342 119 1315 q 185 1411 149 1368 q 203 1375 189 1385 q 239 1365 217 1365 q 266 1367 249 1365 q 294 1371 283 1369 q 388 1397 354 1375 l 388 1478 l 472 1438 l 472 1396 q 564 1371 507 1375 q 592 1367 575 1369 q 619 1365 610 1365 q 656 1375 642 1365 q 674 1411 669 1385 q 724 1342 710 1368 q 739 1292 739 1315 q 735 1258 739 1278 l 726 1257 q 683 1305 713 1290 q 628 1322 654 1319 q 565 1324 603 1324 q 490 1303 531 1324 q 429 1231 450 1282 q 368 1303 408 1282 q 293 1324 328 1324 q 230 1322 256 1324 q 175 1305 204 1319 q 132 1257 146 1290 l 124 1258 m 515 1015 q 479 1003 493 1007 q 446 1001 465 1000 l 446 1051 q 454 1137 446 1110 q 486 1197 463 1164 q 456 1175 475 1193 q 428 1143 436 1157 q 403 1174 421 1157 q 371 1197 386 1190 q 397 1158 389 1172 q 410 1119 404 1144 q 415 1051 415 1094 l 415 1001 q 346 1015 374 1001 l 346 1050 q 331 1149 346 1099 q 294 1232 317 1200 q 247 1264 271 1264 q 265 1285 253 1278 q 296 1293 278 1293 q 326 1288 311 1293 q 380 1251 349 1281 q 428 1190 411 1222 q 481 1253 451 1228 q 535 1288 510 1278 q 565 1293 547 1293 q 614 1278 594 1293 q 572 1237 596 1272 q 532 1151 549 1201 q 515 1050 515 1100 l 515 1015 m 300 38 q 267 -23 282 13 q 251 -85 251 -58 q 257 -107 251 -93 q 191 -80 226 -107 q 110 10 156 -53 l 89 42 q 53 90 68 74 q 14 111 38 107 q 46 200 46 135 l 46 389 q 38 458 44 440 q 14 485 31 476 q 38 511 31 493 q 46 581 44 529 l 46 832 q 40 923 46 888 q 15 972 35 958 q 58 982 33 974 q 104 1004 82 990 q 89 1056 89 1031 q 103 1111 89 1079 q 164 1035 108 1069 q 292 984 219 1001 q 411 972 364 967 q 383 927 394 960 q 372 861 372 894 l 372 581 q 381 511 374 529 q 404 485 388 493 q 381 458 388 476 q 372 389 374 440 l 372 196 q 383 147 372 169 q 404 113 393 125 q 346 86 369 101 q 300 38 322 71 m 813 813 q 818 787 813 803 q 832 764 824 771 q 774 737 804 756 q 701 690 743 718 l 701 772 l 701 929 q 732 935 719 929 q 749 948 744 940 q 751 961 754 956 q 686 936 735 950 q 597 919 638 922 l 597 751 q 699 640 597 640 q 760 648 726 640 q 801 657 794 656 q 817 661 808 658 q 836 665 826 664 q 820 620 826 654 q 813 549 814 586 q 822 504 815 517 q 843 485 829 492 q 822 465 829 478 q 813 419 815 453 l 813 200 q 844 111 813 135 q 806 90 821 107 q 769 42 790 74 l 749 10 q 667 -80 703 -53 q 601 -107 632 -107 q 607 -85 607 -93 q 592 -23 607 -58 q 558 38 576 13 q 513 86 536 71 q 454 113 489 101 q 476 147 465 125 q 486 196 486 169 l 486 389 q 478 458 485 440 q 454 485 471 476 q 472 499 465 490 q 482 524 478 507 q 453 629 472 608 q 558 542 489 635 q 625 494 588 503 q 616 485 624 492 q 603 465 608 478 q 597 432 597 451 l 597 156 q 623 75 597 122 q 679 10 649 28 q 683 21 683 14 q 674 42 683 31 q 651 58 664 53 q 686 98 671 71 q 701 156 701 125 l 701 593 q 638 582 674 582 q 530 623 574 582 q 486 738 486 664 l 486 832 q 481 923 486 888 q 456 972 475 958 l 476 971 q 614 990 532 971 q 764 1042 696 1010 q 851 1111 832 1075 q 858 1079 858 1099 q 813 976 858 1042 l 813 813 m 179 10 q 235 75 210 28 q 261 156 261 122 l 261 893 q 289 881 272 881 q 306 885 299 881 q 311 893 314 889 q 157 953 210 918 l 157 951 l 157 156 q 172 98 157 125 q 207 58 188 71 q 185 42 194 53 q 175 21 175 31 q 179 10 175 14 m 486 408 l 486 390 l 486 408 m 346 -25 q 370 33 346 8 q 429 57 394 57 q 487 33 463 57 q 511 -25 511 8 q 487 -84 511 -60 q 429 -108 463 -108 q 370 -84 394 -108 q 346 -25 346 -60 m 468 -24 q 456 3 468 -8 q 429 15 444 15 q 401 3 414 15 q 389 -24 389 -8 q 401 -51 389 -39 q 429 -64 414 -64 q 456 -51 444 -64 q 468 -24 468 -39 m 558 -14 q 575 -74 575 -43 q 515 -160 575 -132 q 515 -241 515 -167 q 524 -376 515 -315 q 542 -414 526 -389 q 563 -443 557 -439 q 530 -466 543 -444 q 500 -533 517 -487 q 467 -610 482 -579 q 431 -665 453 -640 q 394 -610 408 -640 q 361 -533 379 -579 q 331 -466 344 -487 q 299 -443 318 -444 q 319 -414 304 -439 q 338 -376 335 -389 q 346 -241 346 -315 q 346 -160 346 -167 q 286 -74 286 -132 q 303 -14 286 -43 q 331 -102 304 -72 q 415 -140 358 -132 l 415 -392 q 418 -477 415 -446 q 431 -531 421 -508 q 443 -477 440 -508 q 446 -392 446 -446 l 446 -140 q 530 -102 503 -132 q 558 -14 557 -72 z "},".":{"ha":181,"x_min":14,"x_max":167,"o":"m 14 -22 q 90 61 53 -8 q 167 -22 128 -8 q 90 -107 128 -39 q 14 -22 53 -39 z "},",":{"ha":181,"x_min":14,"x_max":167,"o":"m 14 -22 q 90 61 53 -8 q 167 -22 128 -8 q 113 -71 136 -36 q 104 -84 108 -78 q 96 -96 100 -90 q 75 -125 83 -117 q 49 -133 67 -133 q 63 -90 63 -110 q 14 -22 63 -51 z "},":":{"ha":181,"x_min":14,"x_max":167,"o":"m 14 708 q 90 792 53 722 q 167 708 128 722 q 90 624 128 692 q 14 708 53 692 m 14 269 q 90 353 53 283 q 167 269 128 283 q 90 185 128 253 q 14 269 53 253 z "},";":{"ha":181,"x_min":14,"x_max":167,"o":"m 14 708 q 90 792 53 722 q 167 708 128 722 q 90 624 128 692 q 14 708 53 692 m 14 269 q 90 353 53 283 q 167 269 128 283 q 113 221 136 256 q 104 208 108 214 q 96 196 100 201 q 76 167 85 175 q 49 158 67 158 q 63 201 63 182 q 14 269 63 240 z "},"…":{"ha":181,"x_min":14,"x_max":167,"o":"m 90 61 q 167 -22 128 -8 q 90 -107 128 -39 q 14 -22 53 -39 q 90 61 53 -8 z "},"!":{"ha":221,"x_min":14,"x_max":207,"o":"m 43 915 q 90 889 63 889 q 110 896 107 889 q 57 938 78 915 q 26 986 39 958 q 14 1040 14 1014 q 51 1111 14 1086 q 50 1093 50 1104 q 103 1013 50 1042 q 207 992 140 992 q 182 896 185 976 l 158 578 q 157 546 157 565 q 163 506 157 519 q 182 485 169 493 q 160 467 168 479 q 146 424 151 456 l 126 163 l 99 204 l 82 425 q 68 467 76 456 q 46 485 60 479 q 66 508 60 493 q 71 563 72 524 l 43 915 m 33 -22 q 110 61 72 -8 q 186 -22 147 -8 q 110 -107 147 -39 q 33 -22 72 -39 z "},"?":{"ha":422,"x_min":14,"x_max":408,"o":"m 286 1006 q 344 965 307 983 q 408 946 381 947 q 383 897 389 932 q 378 806 378 861 l 378 738 q 346 585 378 651 q 246 450 314 519 q 182 334 199 401 q 165 163 165 267 l 138 204 q 133 290 133 254 q 148 398 133 354 q 196 489 163 442 q 249 596 235 542 q 267 751 263 650 l 267 925 q 261 965 267 938 q 114 893 214 918 q 119 885 113 889 q 138 882 126 882 q 164 893 158 882 l 164 675 q 92 722 122 703 q 33 749 61 740 q 47 772 42 756 q 53 797 53 788 l 53 861 q 42 934 53 896 q 14 985 31 972 q 47 981 29 981 q 135 998 89 981 q 213 1042 182 1015 q 244 1094 244 1069 q 240 1111 244 1103 q 289 1028 289 1074 q 286 1006 289 1013 m 150 61 q 226 -22 188 -8 q 150 -107 188 -39 q 74 -22 113 -39 q 150 61 113 -8 z "},"·":{"ha":181,"x_min":14,"x_max":167,"o":"m 167 486 q 90 403 128 472 q 14 486 53 472 q 90 571 53 503 q 167 486 128 503 z "},"•":{"ha":250,"x_min":14,"x_max":236,"o":"m 236 486 q 125 365 179 465 q 14 486 71 465 q 125 608 71 508 q 236 486 179 508 z "},"*":{"ha":314,"x_min":14,"x_max":300,"o":"m 14 1025 q 36 1024 22 1024 q 81 1038 63 1024 q 143 967 79 1015 q 132 1044 138 1019 q 117 1075 126 1069 q 138 1090 129 1081 q 156 1124 146 1100 q 174 1090 165 1100 q 196 1075 182 1081 q 171 968 181 1067 q 233 1038 236 1014 q 278 1024 251 1024 q 300 1025 292 1024 q 278 997 286 1011 q 274 971 271 983 q 258 972 268 975 q 228 958 249 969 q 190 940 219 953 l 217 910 q 243 881 235 889 q 260 876 251 874 q 256 861 256 868 q 267 815 256 853 q 224 828 243 828 q 204 825 215 828 q 197 856 208 833 q 157 921 185 879 q 117 857 129 881 q 110 825 104 833 q 89 828 96 828 q 46 815 71 828 q 53 844 49 831 q 57 864 57 857 q 54 876 57 868 q 73 883 63 874 q 99 911 83 893 q 124 940 114 929 l 90 957 q 58 972 68 968 q 40 971 47 975 q 14 1025 46 992 z "},"#":{"ha":718,"x_min":14,"x_max":704,"o":"m 682 994 l 597 792 q 682 801 639 793 q 635 749 651 771 q 619 708 619 726 l 561 708 l 518 603 q 508 560 508 575 q 519 531 508 544 q 493 521 504 529 q 468 486 482 513 l 408 342 q 504 351 471 343 q 458 299 474 321 q 442 258 442 276 l 372 258 l 265 3 q 238 -69 244 -47 q 226 -115 231 -92 q 193 -69 208 -85 q 160 -53 178 -53 l 182 3 l 289 258 l 226 258 l 119 3 q 92 -69 99 -47 q 81 -115 85 -92 q 47 -69 63 -85 q 14 -53 32 -53 l 36 3 l 143 258 q 69 249 110 257 q 116 301 100 279 q 132 342 132 324 l 178 342 l 244 500 q 254 544 254 528 q 243 574 254 560 q 269 583 258 575 q 294 618 281 592 l 332 708 q 268 706 288 708 q 226 699 249 704 q 273 751 257 729 q 289 792 289 774 l 367 792 l 451 993 q 479 1064 472 1043 q 492 1111 486 1085 q 525 1065 510 1081 q 558 1049 540 1049 l 536 994 l 451 792 l 513 792 l 597 993 q 625 1064 618 1043 q 638 1111 632 1085 q 671 1065 656 1081 q 704 1049 686 1049 l 682 994 m 263 342 l 324 342 l 478 708 l 415 708 l 263 342 z "},"/":{"ha":572,"x_min":14,"x_max":558,"o":"m 536 1121 l 372 631 q 358 564 358 585 q 371 531 358 546 q 344 518 356 528 q 321 478 333 508 l 119 -122 l 96 -189 q 81 -240 83 -224 q 47 -194 63 -210 q 14 -178 32 -178 l 36 -122 l 235 474 q 246 531 246 508 q 233 564 246 549 q 259 576 249 567 q 282 613 269 585 l 451 1119 q 478 1193 465 1164 q 492 1238 489 1225 q 525 1191 510 1207 q 558 1175 540 1175 l 536 1121 z "},"\\":{"ha":572,"x_min":14,"x_max":558,"o":"m 536 -122 l 558 -178 q 525 -194 540 -178 q 492 -240 510 -210 q 476 -189 489 -224 l 453 -122 l 251 478 q 228 518 239 508 q 201 531 217 528 q 214 564 214 546 q 200 631 214 585 l 36 1121 l 14 1175 q 47 1191 32 1175 q 81 1238 63 1207 q 94 1193 83 1225 q 121 1119 107 1164 l 290 613 q 313 576 303 585 q 339 564 324 567 q 326 531 326 549 q 338 474 326 508 l 536 -122 z "},"(":{"ha":411,"x_min":14,"x_max":397,"o":"m 14 485 q 35 505 26 492 q 51 546 44 518 q 117 878 71 729 q 236 1122 164 1028 q 397 1238 308 1217 q 219 970 282 1143 q 156 571 157 797 q 165 510 157 526 q 188 485 172 493 q 167 441 172 476 q 165 364 163 406 q 231 15 182 149 q 356 -118 279 -118 q 382 -114 367 -118 q 301 -203 336 -176 q 236 -231 267 -231 q 138 -97 182 -196 q 69 133 94 3 q 42 390 44 264 q 35 459 42 442 q 14 485 29 476 z "},")":{"ha":411,"x_min":14,"x_max":397,"o":"m 397 481 q 376 460 385 474 q 360 419 367 447 q 241 -27 332 144 q 14 -231 150 -199 q 193 20 132 -133 q 256 394 254 174 q 247 456 254 439 q 224 481 239 472 q 244 524 239 489 q 246 601 249 560 q 179 975 229 825 q 51 1125 129 1125 q 29 1121 42 1125 q 110 1210 75 1183 q 175 1238 144 1238 q 273 1094 229 1203 q 342 844 317 986 q 369 575 367 703 q 376 506 369 524 q 397 481 382 489 z "},"{":{"ha":328,"x_min":14,"x_max":314,"o":"m 14 518 q 66 589 54 551 q 75 672 78 626 q 85 936 78 832 q 115 1123 92 1040 q 186 1239 139 1206 q 314 1122 240 1239 q 283 1128 299 1128 q 230 1093 247 1128 q 206 1000 213 1058 q 192 821 199 942 q 185 699 190 786 q 151 566 174 607 q 74 518 129 525 q 151 469 129 510 q 185 338 174 429 q 192 211 190 247 q 206 22 199 85 q 231 -80 213 -42 q 286 -118 250 -118 q 314 -114 299 -118 q 186 -231 240 -231 q 116 -108 139 -197 q 85 90 93 -19 q 75 364 78 200 q 64 450 78 414 q 14 518 50 486 z "},"}":{"ha":328,"x_min":14,"x_max":314,"o":"m 314 518 q 264 450 278 486 q 253 364 250 414 q 242 90 250 200 q 212 -108 235 -19 q 142 -231 189 -197 q 14 -114 88 -231 q 42 -118 29 -118 q 97 -80 78 -118 q 122 22 115 -42 q 136 211 129 85 q 143 338 138 247 q 176 469 154 429 q 254 518 199 510 q 176 566 199 525 q 143 699 154 607 q 136 821 138 786 q 122 1000 129 942 q 98 1093 115 1058 q 44 1128 81 1128 q 14 1122 29 1128 q 142 1239 88 1239 q 213 1123 189 1206 q 243 936 236 1040 q 253 672 250 832 q 262 589 250 626 q 314 518 274 551 z "},"[":{"ha":263,"x_min":14,"x_max":249,"o":"m 14 485 q 38 511 31 493 q 46 581 44 529 q 59 888 46 742 q 93 1129 72 1035 q 135 1239 114 1224 q 183 1214 160 1239 q 249 1122 207 1189 q 181 977 200 1135 q 158 551 161 819 q 168 505 161 518 q 189 485 175 492 q 168 465 175 478 q 158 424 161 453 q 183 19 164 164 q 249 -114 201 -125 q 183 -206 207 -181 q 135 -231 160 -231 q 74 -17 100 -206 q 46 410 49 171 q 37 463 44 449 q 14 485 29 478 z "},"]":{"ha":263,"x_min":14,"x_max":249,"o":"m 249 485 q 226 463 233 478 q 217 410 218 449 q 188 -17 214 171 q 128 -231 163 -206 q 79 -206 103 -231 q 14 -114 56 -181 q 80 19 61 -125 q 104 424 99 164 q 94 465 101 453 q 74 485 88 478 q 94 505 88 492 q 104 551 101 518 q 82 977 101 819 q 14 1122 63 1135 q 79 1214 56 1189 q 128 1239 103 1239 q 169 1129 149 1224 q 203 888 190 1035 q 217 581 217 742 q 225 511 218 529 q 249 485 232 493 z "},"-":{"ha":456,"x_min":14,"x_max":442,"o":"m 38 472 q 68 504 60 493 q 76 529 76 515 l 132 529 q 201 538 183 531 q 228 561 219 544 q 254 538 236 544 q 325 529 272 531 q 397 531 375 529 q 442 539 418 533 l 418 517 q 388 485 396 496 q 379 460 379 474 l 324 460 q 254 451 272 458 q 228 428 236 444 q 201 451 219 444 q 132 460 183 458 q 60 458 82 460 q 14 450 38 456 l 38 472 z "},"­":{"ha":456,"x_min":14,"x_max":442,"o":"m 38 472 q 68 504 60 493 q 76 529 76 515 l 132 529 q 201 538 183 531 q 228 561 219 544 q 254 538 236 544 q 325 529 272 531 q 397 531 375 529 q 442 539 418 533 l 418 517 q 388 485 396 496 q 379 460 379 474 l 324 460 q 254 451 272 458 q 228 428 236 444 q 201 451 219 444 q 132 460 183 458 q 60 458 82 460 q 14 450 38 456 l 38 472 z "},"–":{"ha":706,"x_min":14,"x_max":692,"o":"m 574 529 q 646 531 624 529 q 692 539 668 533 l 668 517 q 638 485 646 496 q 629 460 629 474 l 449 460 q 379 451 397 458 q 353 428 361 444 q 326 451 344 444 q 257 460 308 458 l 132 460 q 60 458 82 460 q 14 450 38 456 l 38 472 q 68 504 60 493 q 76 529 76 515 l 257 529 q 326 538 308 531 q 353 561 344 544 q 379 538 361 544 q 449 529 397 531 l 574 529 z "},"—":{"ha":929,"x_min":14,"x_max":915,"o":"m 797 529 q 869 531 847 529 q 915 539 892 533 l 892 517 q 861 485 869 496 q 853 460 853 474 l 563 460 q 493 451 511 458 q 467 428 475 444 q 440 451 458 444 q 371 460 422 458 l 132 460 q 60 458 82 460 q 14 450 38 456 l 38 472 q 68 504 60 493 q 76 529 76 515 l 371 529 q 440 538 422 531 q 467 561 458 544 q 493 538 475 544 q 563 529 511 531 l 797 529 z "},"_":{"ha":456,"x_min":14,"x_max":442,"o":"m 324 -143 q 396 -141 374 -143 q 442 -133 418 -139 l 418 -156 q 388 -187 396 -176 q 379 -212 379 -199 l 324 -212 q 254 -221 272 -214 q 228 -244 236 -228 q 201 -221 219 -228 q 132 -212 183 -214 q 60 -215 82 -212 q 14 -222 38 -217 l 38 -200 q 68 -168 60 -179 q 76 -143 76 -157 l 132 -143 q 201 -135 183 -142 q 228 -111 219 -128 q 254 -135 236 -128 q 324 -143 272 -142 z "},"‚":{"ha":181,"x_min":14,"x_max":167,"o":"m 14 -22 q 90 61 53 -8 q 167 -22 128 -8 q 113 -71 136 -36 q 104 -84 108 -78 q 96 -96 100 -90 q 75 -125 83 -117 q 49 -133 67 -133 q 63 -90 63 -110 q 14 -22 63 -51 z "},"„":{"ha":181,"x_min":14,"x_max":167,"o":"m 90 61 q 167 -22 128 -8 q 113 -71 136 -36 q 104 -84 108 -78 q 96 -96 100 -90 q 75 -125 83 -117 q 49 -133 67 -133 q 63 -90 63 -110 q 14 -22 63 -51 q 90 61 53 -8 z "},"“":{"ha":358,"x_min":14,"x_max":344,"o":"m 167 1126 q 90 1043 128 1113 q 14 1126 53 1113 q 68 1175 44 1140 q 76 1188 72 1182 q 85 1200 81 1194 q 106 1229 96 1221 q 132 1238 115 1238 q 118 1194 118 1214 q 167 1126 118 1156 m 344 1126 q 268 1043 306 1113 q 192 1126 231 1113 q 246 1175 222 1140 q 254 1188 250 1182 q 263 1200 258 1194 q 284 1229 275 1221 q 310 1238 293 1238 q 296 1194 296 1214 q 344 1126 296 1156 z "},"”":{"ha":358,"x_min":14,"x_max":344,"o":"m 14 1154 q 90 1238 53 1168 q 167 1154 128 1168 q 113 1106 136 1140 q 104 1092 108 1099 q 96 1081 100 1086 q 76 1051 85 1060 q 49 1043 67 1043 q 63 1086 63 1067 q 14 1154 63 1125 m 192 1154 q 268 1238 231 1168 q 344 1154 306 1168 q 290 1106 314 1140 q 282 1092 286 1099 q 274 1081 278 1086 q 253 1051 261 1060 q 226 1043 244 1043 q 240 1086 240 1067 q 192 1154 240 1125 z "},"‘":{"ha":181,"x_min":14,"x_max":167,"o":"m 167 1126 q 90 1043 128 1113 q 14 1126 53 1113 q 68 1175 44 1140 q 76 1188 72 1182 q 85 1200 81 1194 q 106 1229 96 1221 q 132 1238 115 1238 q 118 1194 118 1214 q 167 1126 118 1156 z "},"’":{"ha":181,"x_min":14,"x_max":167,"o":"m 14 1154 q 90 1238 53 1168 q 167 1154 128 1168 q 113 1106 136 1140 q 104 1092 108 1099 q 96 1081 100 1086 q 76 1051 85 1060 q 49 1043 67 1043 q 63 1086 63 1067 q 14 1154 63 1125 z "},"«":{"ha":544,"x_min":14,"x_max":531,"o":"m 164 618 q 240 672 219 657 q 271 700 260 688 q 288 675 271 685 q 328 665 304 665 q 349 668 335 665 l 103 496 l 349 324 q 328 326 335 326 q 288 317 304 326 q 271 292 271 307 q 237 323 260 306 q 154 381 214 340 q 83 429 118 404 q 14 476 47 454 q 36 498 26 482 q 46 536 46 514 l 164 618 m 346 618 q 422 672 401 657 q 453 700 442 688 q 469 675 453 685 q 510 665 486 665 q 531 668 517 665 l 285 496 l 531 324 q 510 326 517 326 q 469 317 486 326 q 453 292 453 307 q 419 324 442 307 q 336 381 396 340 q 265 429 300 404 q 196 476 229 454 q 218 498 208 482 q 228 536 228 514 l 346 618 z "},"»":{"ha":544,"x_min":14,"x_max":531,"o":"m 317 536 q 326 498 317 514 q 349 476 336 482 q 280 429 315 454 q 208 381 244 404 q 126 324 149 340 q 92 292 103 307 q 75 317 92 307 q 35 326 58 326 q 14 324 28 326 l 260 496 l 14 668 q 35 665 28 665 q 75 675 58 665 q 92 700 92 685 q 115 678 101 689 q 178 633 129 667 q 317 536 226 600 m 499 536 q 508 498 499 514 q 531 476 518 482 q 462 429 497 454 q 390 381 426 404 q 308 323 331 340 q 274 292 285 306 q 257 317 274 307 q 217 326 240 326 q 196 324 210 326 l 442 496 l 196 668 q 217 665 210 665 q 257 675 240 665 q 274 700 274 685 q 297 678 283 689 q 360 633 311 667 q 499 536 408 600 z "},"‹":{"ha":363,"x_min":14,"x_max":349,"o":"m 164 618 q 240 672 219 657 q 271 700 260 688 q 288 675 271 685 q 328 665 304 665 q 349 668 335 665 l 103 496 l 349 324 q 328 326 335 326 q 288 317 304 326 q 271 292 271 307 q 237 323 260 306 q 154 381 214 340 q 83 429 118 404 q 14 476 47 454 q 36 498 26 482 q 46 536 46 514 l 164 618 z "},"›":{"ha":363,"x_min":14,"x_max":349,"o":"m 317 536 q 326 498 317 514 q 349 476 336 482 q 280 429 315 454 q 208 381 244 404 q 126 324 149 340 q 92 292 103 307 q 75 317 92 307 q 35 326 58 326 q 14 324 28 326 l 260 496 l 14 668 q 35 665 28 665 q 75 675 58 665 q 92 700 92 685 q 115 678 101 689 q 178 633 129 667 q 317 536 226 600 z "},"\"":{"ha":215,"x_min":14,"x_max":201,"o":"m 14 993 q 18 1074 18 1056 l 18 1175 q 42 1183 31 1175 q 72 1213 53 1192 l 96 1238 q 88 1146 88 1210 l 88 1056 q 60 1045 72 1056 q 35 1018 49 1035 q 14 993 21 1001 m 119 993 q 124 1074 124 1056 l 124 1175 q 147 1183 136 1175 q 178 1213 158 1192 l 201 1238 q 193 1146 193 1210 l 193 1056 q 166 1045 178 1056 q 140 1018 154 1035 q 119 993 126 1001 z "},"'":{"ha":110,"x_min":14,"x_max":96,"o":"m 14 993 q 18 1074 18 1056 l 18 1175 q 42 1183 31 1175 q 72 1213 53 1192 l 96 1238 q 88 1146 88 1210 l 88 1056 q 60 1045 72 1056 q 35 1018 49 1035 q 14 993 21 1001 z "}," ":{"ha":278,"x_min":0,"x_max":0,"o":""},"¢":{"ha":424,"x_min":14,"x_max":410,"o":"m 371 715 q 376 690 371 706 q 390 667 382 674 q 332 640 363 658 q 260 593 301 621 l 260 893 q 288 881 271 881 q 305 885 297 881 q 310 893 313 889 q 165 972 199 919 q 157 924 157 950 l 157 179 q 173 108 157 147 q 207 58 189 69 q 185 42 194 53 q 175 21 175 31 q 179 10 175 14 q 247 74 222 44 q 292 144 271 104 q 303 183 303 171 q 279 221 303 208 q 326 260 315 236 q 338 324 336 285 q 315 436 338 378 q 396 314 374 396 q 403 246 403 288 q 364 89 403 163 q 301 -12 346 53 q 260 -79 268 -61 l 260 -171 q 219 -187 242 -171 q 167 -233 197 -203 q 176 -115 175 -194 l 176 -67 q 110 10 146 -37 l 89 42 q 53 90 68 74 q 14 111 38 107 q 46 200 46 135 l 46 389 q 38 458 44 440 q 14 485 31 476 q 38 511 31 493 q 46 581 44 529 l 46 804 q 40 895 46 860 q 15 944 35 931 q 92 972 46 946 q 157 1024 138 997 q 176 1065 161 1043 l 176 1176 q 217 1192 194 1176 q 269 1239 239 1208 q 262 1193 264 1215 q 260 1121 260 1171 l 260 1014 q 333 980 292 992 q 410 972 375 968 q 382 927 393 960 q 371 861 371 894 l 371 715 z "},"¤":{"ha":525,"x_min":14,"x_max":511,"o":"m 467 267 l 499 217 q 469 194 481 213 q 444 143 457 176 q 417 197 439 160 l 385 253 l 365 286 l 357 274 q 324 213 339 249 q 308 151 308 178 q 314 129 308 143 q 248 156 283 129 q 167 246 213 183 q 150 271 157 258 l 140 253 l 108 197 q 81 143 86 160 q 56 194 68 176 q 26 217 44 213 l 58 267 l 94 329 q 103 393 103 354 q 94 459 101 442 q 71 485 88 476 q 94 510 88 493 q 103 576 101 528 q 92 668 103 635 l 74 697 l 72 699 l 74 699 l 44 746 l 14 794 q 44 817 32 799 q 68 868 56 835 q 104 801 75 850 l 129 758 l 149 725 l 146 722 q 196 760 179 742 q 193 782 193 767 q 242 865 193 828 q 238 849 238 857 q 282 786 238 818 q 383 738 326 754 l 396 758 l 421 801 q 457 868 450 850 q 481 817 469 835 q 511 794 493 799 l 481 746 l 439 678 q 429 615 429 644 l 429 581 q 438 511 431 529 q 461 485 444 493 q 438 460 444 476 q 429 394 431 443 q 436 319 429 326 l 467 267 m 318 647 q 346 635 329 635 q 363 639 356 635 q 368 647 371 643 q 221 721 264 674 q 214 678 214 696 l 214 392 q 229 334 214 361 q 264 294 244 307 q 242 278 251 289 q 232 257 232 267 q 236 246 232 250 q 292 311 267 264 q 318 392 318 358 l 318 647 z "},"$":{"ha":438,"x_min":14,"x_max":424,"o":"m 385 813 q 390 787 385 803 q 404 764 396 771 q 346 737 376 756 q 274 690 315 718 l 274 772 l 274 893 q 301 881 285 881 q 319 885 311 881 q 324 893 326 889 q 175 957 219 919 q 171 924 171 940 l 171 751 q 213 684 171 717 q 313 632 256 651 q 410 617 371 613 q 388 553 392 599 q 397 505 389 518 q 418 485 404 492 q 394 458 401 476 q 386 389 388 440 l 386 160 q 390 105 386 121 q 411 72 393 89 q 377 59 392 71 q 339 22 363 47 q 268 -43 293 -24 l 244 -61 l 244 -171 q 204 -187 226 -171 q 151 -233 182 -203 q 161 -115 160 -194 l 161 -99 q 72 -107 125 -107 l 14 -107 q 60 85 60 -51 l 60 390 q 25 629 60 592 q 132 542 61 635 q 199 494 161 503 q 190 485 197 492 q 176 465 182 478 q 171 432 171 451 l 171 61 q 189 21 171 31 q 156 0 168 14 q 146 -22 144 -14 q 238 40 203 -1 q 275 172 274 82 l 275 553 q 188 590 239 563 q 98 656 136 617 q 60 738 60 696 l 60 804 q 54 895 60 860 q 29 944 49 931 q 91 963 56 946 q 149 1001 126 979 l 149 1007 q 161 1044 149 1026 l 161 1176 q 201 1192 179 1176 q 254 1239 224 1208 q 247 1193 249 1215 q 244 1121 244 1171 l 244 1010 q 333 979 282 990 q 424 972 385 968 q 396 927 407 960 q 385 861 385 894 l 385 813 z "},"€":{"ha":497,"x_min":14,"x_max":483,"o":"m 444 771 q 450 745 444 761 q 464 722 456 729 q 406 695 436 714 q 333 649 375 676 l 333 893 q 361 881 344 881 q 378 885 371 881 q 383 893 386 889 q 236 961 288 917 q 231 924 231 944 l 231 613 l 324 613 q 396 615 374 613 q 442 622 418 617 l 418 600 q 388 568 396 579 q 379 543 379 557 l 231 543 l 231 489 l 324 489 q 396 491 374 489 q 442 499 418 493 l 418 476 q 388 444 396 456 q 379 419 379 433 l 231 419 l 231 179 q 247 108 231 147 q 281 58 263 69 q 258 42 268 53 q 249 21 249 31 q 253 10 249 14 q 320 74 296 44 q 365 144 344 104 q 376 183 376 171 q 353 221 376 208 q 399 272 383 233 q 415 356 415 310 q 404 426 415 399 q 445 383 432 408 q 469 314 458 358 q 476 246 476 288 q 438 89 476 163 q 376 -10 421 57 q 335 -74 347 -53 q 331 -107 324 -96 q 265 -80 300 -107 q 183 10 229 -53 l 163 42 q 126 90 142 74 q 88 111 111 107 q 119 200 119 135 l 119 419 q 56 417 75 419 q 14 410 36 415 l 38 432 q 68 464 60 453 q 76 489 76 475 l 119 489 l 119 543 q 56 541 75 543 q 14 533 36 539 l 38 556 q 68 588 60 576 q 76 613 76 599 l 119 613 l 119 804 q 114 895 119 860 q 89 944 108 931 q 149 962 115 946 q 207 999 183 978 q 199 1035 199 1018 q 243 1111 199 1076 q 239 1096 239 1103 q 282 1036 239 1067 q 383 987 325 1006 q 483 972 442 968 q 456 927 467 960 q 444 861 444 894 l 444 771 z "},"¥":{"ha":499,"x_min":14,"x_max":485,"o":"m 386 414 l 386 371 q 482 381 449 372 l 458 358 q 428 326 436 338 q 419 301 419 315 l 386 301 l 386 160 q 390 105 386 121 q 411 72 393 89 q 377 59 392 71 q 339 22 363 47 q 268 -43 293 -24 q 174 -95 219 -82 q 74 -108 128 -108 l 14 -107 q 60 85 60 -51 l 60 335 q 25 574 60 536 q 132 486 61 579 q 199 439 161 447 q 190 429 197 436 q 176 409 182 422 q 171 376 171 396 l 171 61 q 189 21 171 31 q 156 0 168 14 q 146 -22 144 -14 q 238 40 203 -1 q 275 172 274 82 l 275 301 q 186 292 228 300 l 210 314 q 240 346 232 335 q 249 371 249 357 l 275 371 l 275 414 q 189 404 232 413 l 213 426 q 243 458 235 447 q 251 483 251 469 l 275 483 l 275 563 q 177 590 228 565 q 93 655 126 615 q 60 738 60 694 l 60 915 q 97 889 79 889 q 113 896 110 889 q 60 938 81 915 q 29 986 42 958 q 17 1040 17 1014 q 54 1111 17 1086 q 53 1093 53 1104 q 106 1013 53 1042 q 196 992 143 992 q 177 957 183 983 q 171 896 171 931 l 171 751 q 275 639 179 658 l 275 914 q 269 969 275 944 q 258 1001 264 994 q 332 1039 300 1011 l 353 1060 q 392 1099 375 1085 q 421 1111 408 1113 q 386 914 386 1074 l 386 483 q 485 493 453 485 l 461 471 q 431 439 439 450 q 422 414 422 428 l 386 414 z "},"+":{"ha":511,"x_min":14,"x_max":497,"o":"m 379 529 q 451 531 429 529 q 497 539 474 533 l 474 517 q 443 485 451 496 q 435 460 435 474 l 281 460 l 281 371 q 283 299 281 321 q 290 253 285 276 l 268 276 q 236 307 247 299 q 211 315 225 315 l 211 460 l 132 460 q 60 458 82 460 q 14 450 38 456 l 38 472 q 68 504 60 493 q 76 529 76 515 l 211 529 l 211 618 q 209 690 211 668 q 201 736 207 713 l 224 713 q 256 682 244 690 q 281 674 267 674 l 281 529 l 379 529 z "},"−":{"ha":511,"x_min":14,"x_max":497,"o":"m 379 529 q 451 531 429 529 q 497 539 474 533 l 474 517 q 443 485 451 496 q 435 460 435 474 l 351 460 q 282 451 300 458 q 256 428 264 444 q 229 451 247 444 q 160 460 211 458 l 132 460 q 60 458 82 460 q 14 450 38 456 l 38 472 q 68 504 60 493 q 76 529 76 515 l 160 529 q 229 538 211 531 q 256 561 247 544 q 282 538 264 544 q 351 529 300 531 l 379 529 z "},"×":{"ha":397,"x_min":14,"x_max":383,"o":"m 297 433 q 347 364 324 396 q 383 321 371 332 q 338 331 376 322 q 299 338 313 338 q 285 333 292 338 l 240 394 l 199 454 l 135 389 q 58 299 82 336 q 56 361 58 343 q 39 393 53 379 l 85 438 l 157 511 l 83 614 q 14 699 36 679 q 58 688 31 696 q 93 679 86 679 q 114 693 108 679 l 140 653 l 206 561 l 275 632 q 314 675 303 661 q 336 707 325 689 q 364 622 336 635 l 324 582 l 247 504 l 297 433 z "},"÷":{"ha":511,"x_min":14,"x_max":497,"o":"m 183 708 q 260 792 222 722 q 336 708 297 722 q 260 624 297 692 q 183 708 222 692 m 38 472 q 68 504 60 493 q 76 529 76 515 l 160 529 q 229 538 211 531 q 256 561 247 544 q 282 538 264 544 q 351 529 300 531 l 379 529 q 451 531 429 529 q 497 539 474 533 l 474 517 q 443 485 451 496 q 435 460 435 474 l 351 460 q 282 451 300 458 q 256 428 264 444 q 229 451 247 444 q 160 460 211 458 l 132 460 q 60 458 82 460 q 14 450 38 456 l 38 472 m 183 269 q 260 353 222 283 q 336 269 297 283 q 260 185 297 253 q 183 269 222 253 z "},"=":{"ha":511,"x_min":14,"x_max":497,"o":"m 38 554 q 68 586 60 575 q 76 611 76 597 l 160 613 q 229 619 211 613 q 256 643 247 626 q 282 619 264 626 q 351 611 300 613 l 379 611 q 451 613 429 611 q 497 621 474 615 l 474 599 q 443 567 451 578 q 435 542 435 556 l 351 540 q 282 533 300 540 q 256 510 264 526 q 229 533 247 526 q 160 542 211 540 l 132 542 q 60 540 82 542 q 14 532 38 538 l 38 554 m 38 406 q 68 438 60 426 q 76 463 76 449 l 160 464 q 229 471 211 464 q 256 494 247 478 q 282 471 264 478 q 351 463 300 464 l 379 463 q 451 465 429 463 q 497 472 474 467 l 474 450 q 443 418 451 429 q 435 393 435 407 l 351 392 q 282 385 300 392 q 256 361 264 378 q 229 385 247 378 q 160 393 211 392 l 132 393 q 60 391 82 393 q 14 383 38 389 l 38 406 z "},"≠":{"ha":511,"x_min":14,"x_max":497,"o":"m 379 463 q 451 465 429 463 q 497 472 474 467 l 474 450 q 443 418 451 429 q 435 393 435 407 l 351 392 l 274 392 l 164 -122 l 150 -183 q 139 -240 140 -222 q 100 -194 117 -210 q 65 -178 83 -178 l 81 -122 l 189 393 l 132 393 q 60 391 82 393 q 14 383 38 389 l 38 406 q 68 438 60 426 q 76 463 76 449 l 160 464 l 204 464 l 221 542 l 132 542 q 60 540 82 542 q 14 532 38 538 l 38 554 q 68 586 60 575 q 76 611 76 597 l 160 613 l 236 613 l 343 1119 q 360 1189 347 1140 q 369 1238 368 1221 q 408 1191 392 1207 q 443 1175 425 1175 l 428 1121 l 319 611 l 379 611 q 451 613 429 611 q 497 621 474 615 l 474 599 q 443 567 451 578 q 435 542 435 556 l 351 540 l 304 540 l 288 463 l 379 463 z "},">":{"ha":433,"x_min":14,"x_max":419,"o":"m 419 529 q 410 511 415 525 q 404 483 404 497 q 406 471 404 475 l 297 429 q 251 402 261 414 q 238 374 240 390 q 207 386 225 386 q 158 376 189 386 l 125 364 q 73 344 115 360 q 14 317 31 328 q 29 375 29 350 q 14 397 29 397 l 329 504 l 14 599 q 29 621 29 599 q 14 679 29 646 q 125 632 33 667 l 160 619 q 204 611 192 611 q 222 615 215 611 q 238 625 229 618 q 252 597 242 607 q 300 571 263 586 l 332 560 l 419 529 z "},"<":{"ha":433,"x_min":14,"x_max":419,"o":"m 419 679 q 404 621 404 646 q 419 599 404 599 l 104 492 l 419 397 q 404 375 404 397 q 419 317 404 350 q 308 364 400 329 l 274 376 q 229 385 242 385 q 211 381 218 385 q 196 371 204 378 q 181 399 192 389 q 133 425 171 410 l 101 436 l 14 467 q 24 485 18 471 q 29 513 29 499 q 28 525 29 521 l 136 567 q 183 594 172 582 q 196 622 193 606 q 226 610 208 610 q 275 619 244 610 l 308 632 q 360 652 318 636 q 419 679 403 668 z "},"≥":{"ha":456,"x_min":14,"x_max":442,"o":"m 125 364 q 73 344 115 360 q 14 317 31 328 q 29 375 29 350 q 14 397 29 397 l 329 504 l 14 599 q 29 621 29 599 q 14 679 29 646 q 125 632 33 667 q 138 627 129 631 q 160 619 146 624 q 206 611 192 611 q 238 625 224 611 q 251 599 242 608 q 289 575 260 589 q 433 529 400 539 q 424 511 429 525 q 418 483 418 497 q 419 471 418 475 q 288 426 389 463 q 249 401 258 413 q 238 374 240 390 q 207 386 225 386 q 158 376 189 386 l 125 364 m 336 222 q 399 224 379 222 q 442 232 419 226 l 418 210 q 388 178 396 189 q 379 153 379 167 l 338 153 q 268 144 286 151 q 242 121 250 138 q 215 144 233 138 q 146 153 197 151 l 132 153 q 60 151 82 153 q 14 143 38 149 l 38 165 q 68 197 60 186 q 76 222 76 208 l 146 222 q 215 231 197 224 q 242 254 233 238 q 268 231 250 238 q 336 222 286 224 z "},"≤":{"ha":456,"x_min":14,"x_max":442,"o":"m 158 421 q 14 467 47 457 q 24 485 18 471 q 29 513 29 499 q 28 525 29 521 q 160 569 58 533 q 198 594 189 583 q 210 622 207 606 q 240 610 222 610 q 289 619 258 610 l 322 632 q 374 652 332 636 q 433 679 417 668 q 418 621 418 646 q 433 599 418 599 l 132 492 l 433 397 q 418 375 418 397 q 433 317 418 350 q 322 364 414 329 q 310 369 318 365 q 288 376 301 372 q 242 385 256 385 q 210 371 224 385 q 197 397 206 388 q 158 421 188 407 m 336 222 q 399 224 379 222 q 442 232 419 226 l 418 210 q 388 178 396 189 q 379 153 379 167 l 338 153 q 268 144 286 151 q 242 121 250 138 q 215 144 233 138 q 146 153 197 151 l 132 153 q 60 151 82 153 q 14 143 38 149 l 38 165 q 68 197 60 186 q 76 222 76 208 l 146 222 q 215 231 197 224 q 242 254 233 238 q 268 231 250 238 q 336 222 286 224 z "},"±":{"ha":511,"x_min":14,"x_max":497,"o":"m 132 460 q 60 458 82 460 q 14 450 38 456 l 38 472 q 68 504 60 493 q 76 529 76 515 l 211 529 l 211 618 q 209 690 211 668 q 201 736 207 713 l 224 713 q 256 682 244 690 q 281 674 267 674 l 281 529 l 379 529 q 451 531 429 529 q 497 539 474 533 l 474 517 q 443 485 451 496 q 435 460 435 474 l 281 460 l 281 371 q 283 299 281 321 q 290 253 285 276 l 268 276 q 236 307 247 299 q 211 315 225 315 l 211 460 l 132 460 m 379 222 q 451 224 429 222 q 497 232 474 226 l 474 210 q 443 178 451 189 q 435 153 435 167 l 338 153 q 268 144 286 151 q 242 121 250 138 q 215 144 233 138 q 146 153 197 151 l 132 153 q 60 151 82 153 q 14 143 38 149 l 38 165 q 68 197 60 186 q 76 222 76 208 l 146 222 q 215 231 197 224 q 242 254 233 238 q 268 231 250 238 q 338 222 286 224 l 379 222 z "},"≈":{"ha":511,"x_min":14,"x_max":497,"o":"m 14 522 q 60 572 43 551 q 76 611 76 593 q 150 628 114 628 q 202 621 174 628 q 258 606 231 614 q 334 585 304 592 q 397 579 364 579 q 444 587 422 579 q 497 611 467 594 q 478 588 476 586 q 453 553 461 567 q 444 526 444 539 q 379 511 424 511 q 279 531 357 511 q 193 550 226 543 q 129 557 160 557 q 14 522 72 557 m 14 382 q 60 432 43 411 q 76 471 76 453 q 150 488 114 488 q 202 481 174 488 q 258 465 231 474 q 334 445 304 451 q 397 439 364 439 q 444 447 422 439 q 497 471 467 454 q 478 447 476 446 q 453 413 461 426 q 444 386 444 399 q 379 371 424 371 q 279 390 357 371 q 193 410 226 403 q 129 417 160 417 q 14 382 72 417 z "},"~":{"ha":511,"x_min":14,"x_max":497,"o":"m 14 451 q 60 501 43 481 q 76 540 76 522 q 150 557 114 557 q 202 550 174 557 q 258 535 231 543 q 334 515 304 521 q 397 508 364 508 q 444 516 422 508 q 497 540 467 524 q 478 517 476 515 q 453 482 461 496 q 444 456 444 468 q 379 440 424 440 q 279 460 357 440 q 193 479 226 472 q 129 486 160 486 q 14 451 72 486 z "},"¬":{"ha":511,"x_min":14,"x_max":497,"o":"m 38 472 q 68 504 60 493 q 76 529 76 515 l 381 529 q 452 531 431 529 q 497 539 474 533 q 465 503 475 517 q 453 475 456 489 l 453 371 q 455 299 453 321 q 463 253 457 276 l 440 276 q 408 307 419 299 q 383 315 397 315 l 383 460 l 132 460 q 60 458 82 460 q 14 450 38 456 l 38 472 z "},"^":{"ha":354,"x_min":14,"x_max":340,"o":"m 297 944 q 315 893 300 936 q 340 833 329 850 q 312 844 329 839 q 281 849 294 849 q 256 833 256 849 l 172 1125 l 99 833 q 74 849 99 849 q 42 844 60 849 q 14 833 25 839 q 57 944 26 854 l 65 968 q 75 1024 75 1003 q 63 1057 75 1042 q 87 1071 78 1061 q 108 1113 96 1081 l 149 1239 q 165 1229 153 1235 q 190 1224 176 1224 q 201 1225 197 1224 l 232 1133 q 260 1073 249 1086 q 289 1057 272 1060 q 278 1025 278 1043 q 288 974 278 1007 l 297 944 z "},"∏":{"ha":504,"x_min":14,"x_max":490,"o":"m 394 6 q 429 -233 394 -196 q 322 -146 393 -239 q 256 -99 293 -107 q 265 -89 257 -96 q 278 -69 272 -82 q 283 -36 283 -56 l 283 1008 q 322 1001 307 1001 q 356 1018 351 1001 l 194 1018 l 194 6 q 229 -233 194 -196 q 122 -146 193 -239 q 56 -99 93 -107 q 65 -89 57 -96 q 78 -69 72 -82 q 83 -36 83 -56 l 83 389 q 75 458 82 440 q 51 485 68 476 q 75 511 68 493 q 83 581 82 529 l 83 1017 q 14 1008 43 1015 q 60 1061 44 1039 q 76 1101 76 1083 l 372 1101 q 444 1103 422 1101 q 490 1111 467 1106 q 444 1058 460 1081 q 428 1018 428 1036 l 394 1018 l 394 581 q 403 511 396 529 q 426 485 410 493 q 403 458 410 476 q 394 389 396 440 l 394 6 z "},"∑":{"ha":386,"x_min":14,"x_max":372,"o":"m 150 -24 l 254 -24 q 326 -22 304 -24 q 372 -14 349 -19 q 326 -67 342 -44 q 310 -107 310 -89 l 118 -107 q 58 -108 75 -107 q 30 -112 40 -110 q 14 -117 19 -115 l 244 497 l 14 1111 q 31 1107 19 1110 q 65 1103 43 1104 q 118 1101 86 1101 l 310 1101 q 326 1061 310 1083 q 372 1008 342 1039 q 326 1016 349 1014 q 254 1018 304 1018 l 150 1018 l 350 497 l 150 -24 z "},"∂":{"ha":424,"x_min":14,"x_max":410,"o":"m 378 196 q 388 147 378 169 q 410 113 399 125 q 351 86 375 101 q 306 38 328 71 q 272 -23 288 13 q 257 -85 257 -58 q 263 -107 257 -93 q 197 -80 232 -107 q 115 10 161 -53 l 94 42 q 58 90 74 74 q 19 111 43 107 q 51 200 51 135 l 51 418 q 135 664 51 664 q 267 579 186 664 l 267 924 q 261 961 267 944 q 114 893 210 917 q 119 885 111 889 q 136 881 126 881 q 164 893 153 881 l 164 690 q 92 737 122 718 q 33 764 61 756 q 47 787 42 771 q 53 813 53 803 l 53 861 q 42 927 53 894 q 14 972 31 960 q 114 987 56 968 q 215 1036 172 1006 q 258 1096 258 1067 q 254 1111 258 1103 q 299 1035 299 1076 q 290 999 299 1018 q 348 962 314 978 q 408 944 382 946 q 383 895 389 931 q 378 804 378 860 l 378 581 q 386 511 379 529 q 410 485 393 493 q 386 458 393 476 q 378 389 379 440 l 378 196 m 185 10 q 241 75 215 28 q 267 156 267 122 l 267 458 q 246 524 263 499 q 210 550 229 550 q 180 527 193 550 q 163 458 167 504 l 163 156 q 178 98 163 125 q 213 58 193 71 q 190 42 200 53 q 181 21 181 31 q 185 10 181 14 z "},"%":{"ha":1054,"x_min":14,"x_max":1040,"o":"m 300 390 q 267 330 282 365 q 251 268 251 294 q 257 246 251 260 q 191 273 226 246 q 110 363 156 300 l 89 394 q 53 443 68 426 q 14 464 38 460 q 46 553 46 488 l 46 575 q 38 644 46 626 q 14 671 31 663 q 38 697 31 679 q 46 767 46 715 l 46 808 q 35 857 46 835 q 14 892 25 879 q 72 918 49 903 q 118 967 96 933 q 151 1027 136 992 q 167 1089 167 1063 q 161 1111 167 1097 q 227 1084 192 1111 q 308 994 263 1057 l 329 963 q 365 914 350 931 q 404 893 381 897 q 372 804 372 869 l 372 767 q 381 697 374 715 q 404 671 388 679 q 381 644 388 663 q 372 575 374 626 l 372 549 q 383 500 372 522 q 404 465 393 478 q 346 439 369 454 q 300 390 322 424 m 593 603 q 583 560 583 575 q 594 531 583 544 q 568 521 579 529 q 543 486 557 513 l 340 3 q 313 -69 319 -47 q 301 -115 306 -92 q 268 -69 283 -85 q 235 -53 253 -53 l 257 3 l 465 500 q 475 544 475 528 q 464 574 475 560 q 490 583 479 575 q 515 618 501 592 l 672 993 q 700 1064 693 1043 q 713 1111 707 1085 q 746 1065 731 1081 q 779 1049 761 1049 l 757 994 l 593 603 m 157 814 q 176 749 161 778 q 219 686 192 721 q 239 660 225 678 q 261 626 253 642 l 261 849 q 246 906 261 879 q 211 946 231 933 q 233 963 224 951 q 243 983 243 974 q 239 994 243 990 q 183 929 208 976 q 157 849 157 882 l 157 814 m 1040 318 q 1016 292 1024 310 q 1008 222 1008 274 l 1008 196 q 1019 147 1008 169 q 1040 113 1029 125 q 982 86 1006 101 q 936 38 958 71 q 903 -23 918 13 q 888 -85 888 -58 q 893 -107 888 -93 q 827 -80 863 -107 q 746 10 792 -53 l 725 42 q 689 90 704 74 q 650 111 674 107 q 682 200 682 135 l 682 222 q 674 292 682 274 q 650 318 667 310 q 674 344 667 326 q 682 414 682 363 l 682 456 q 672 504 682 482 q 650 539 661 526 q 708 565 685 550 q 754 614 732 581 q 788 674 772 639 q 803 736 803 710 q 797 758 803 744 q 863 731 828 758 q 944 642 899 704 l 965 610 q 1001 561 986 578 q 1040 540 1017 544 q 1008 451 1008 517 l 1008 414 q 1016 344 1008 363 q 1040 318 1024 326 m 179 363 q 226 413 204 378 q 257 482 249 447 q 239 571 254 532 q 208 632 224 610 q 157 697 192 654 l 157 508 q 172 451 157 478 q 207 411 188 424 q 185 394 194 406 q 175 374 175 383 q 179 363 175 367 m 897 496 q 882 553 897 526 q 847 593 867 581 q 869 610 860 599 q 879 631 879 621 q 875 642 879 638 q 819 576 844 624 q 793 496 793 529 l 793 461 q 813 397 797 425 q 856 333 828 368 q 875 307 861 325 q 897 274 889 289 l 897 496 m 815 10 q 863 60 840 25 q 893 129 885 94 q 875 218 890 179 q 844 279 860 257 q 793 344 828 301 l 793 156 q 808 98 793 125 q 843 58 824 71 q 821 42 831 53 q 811 21 811 31 q 815 10 811 14 z "},"◊":{"ha":372,"x_min":14,"x_max":358,"o":"m 308 285 q 299 236 299 254 q 311 206 299 218 q 283 194 294 203 q 258 156 272 185 q 214 24 222 54 q 201 25 210 25 q 174 19 188 25 q 156 10 160 14 q 110 154 146 43 q 86 192 96 183 q 60 206 76 201 q 74 238 74 219 q 65 283 74 253 q 58 306 61 297 q 53 318 54 314 q 14 413 31 378 l 53 507 q 58 519 54 511 q 65 542 61 528 q 74 588 74 574 q 60 619 74 606 q 86 633 76 624 q 110 671 96 642 q 156 815 146 782 q 174 806 160 811 q 201 800 188 800 q 214 801 210 800 q 258 669 222 771 q 283 631 272 640 q 311 619 294 622 q 299 589 299 607 q 308 540 299 571 l 321 507 l 358 413 q 321 318 335 354 l 308 285 m 115 413 l 183 188 l 258 413 l 183 638 l 115 413 z "},"@":{"ha":861,"x_min":14,"x_max":847,"o":"m 815 581 q 824 511 817 529 q 847 485 831 493 q 824 458 831 476 q 815 389 817 440 l 815 300 q 785 152 815 219 q 705 39 756 85 q 593 -24 654 -7 q 524 16 556 -19 q 479 99 492 51 q 429 38 449 56 q 394 19 410 19 q 365 34 381 19 q 324 83 350 49 q 301 115 315 93 q 267 163 283 146 q 228 185 251 181 q 260 274 260 208 l 260 389 q 251 458 258 440 q 228 485 244 476 q 251 511 244 493 q 260 581 258 529 l 260 735 q 254 826 260 790 q 229 875 249 861 q 291 893 256 876 q 349 931 326 910 q 397 1014 349 976 q 393 997 393 1006 q 433 938 393 968 q 528 890 474 908 q 624 875 583 871 q 596 830 607 863 q 585 764 585 797 l 585 581 q 593 511 586 529 q 617 485 600 493 q 593 458 600 476 q 585 389 586 440 l 585 151 q 604 76 585 97 q 646 54 624 54 q 658 57 653 54 q 691 131 678 67 q 704 268 704 194 l 704 756 q 673 931 704 856 q 588 1047 642 1007 q 460 1090 529 1090 q 376 1076 417 1090 q 306 1042 336 1063 q 196 941 235 996 q 157 801 157 886 l 157 206 q 192 51 157 122 q 284 -61 226 -19 q 406 -103 342 -103 q 493 -82 453 -103 q 326 -160 421 -160 q 190 -114 254 -160 q 85 15 125 -68 q 46 206 46 99 l 46 389 q 38 458 44 440 q 14 485 31 476 q 38 511 31 493 q 46 581 44 529 l 46 788 q 110 936 46 860 q 282 1079 175 1013 q 413 1150 368 1132 q 504 1168 457 1168 q 594 1153 550 1168 q 672 1111 638 1138 q 776 999 736 1064 q 815 867 815 933 l 815 581 m 393 83 q 444 140 421 100 q 474 214 468 179 l 474 796 q 501 783 485 783 q 519 788 511 783 q 524 796 526 792 q 372 872 414 825 q 371 854 371 865 l 371 229 q 386 172 371 199 q 421 132 401 144 q 399 115 408 126 q 389 94 389 104 q 393 83 389 88 z "},"&":{"ha":646,"x_min":14,"x_max":632,"o":"m 476 131 q 555 -3 501 82 q 632 -108 608 -87 q 572 -97 611 -112 q 492 -46 533 -82 q 396 0 438 0 q 399 19 399 6 q 388 75 399 43 l 364 53 q 283 -30 313 6 q 254 -93 254 -65 q 257 -107 254 -99 q 191 -80 226 -107 q 110 10 156 -53 l 89 42 q 53 90 68 74 q 14 111 38 107 q 46 200 46 135 l 46 451 q 70 538 46 501 q 140 590 94 574 q 103 738 103 688 l 103 806 q 97 897 103 861 q 72 946 92 932 q 137 965 100 947 q 194 1006 174 983 q 192 1028 192 1013 q 240 1111 192 1074 q 236 1094 236 1103 q 267 1042 236 1069 q 345 998 299 1015 q 433 981 392 981 q 467 985 450 981 q 439 934 450 972 q 428 861 428 896 l 428 797 q 433 772 428 788 q 447 749 439 756 q 389 722 419 740 q 317 675 358 703 l 317 893 q 344 881 328 881 q 362 885 354 881 q 367 893 369 889 q 219 965 263 919 q 214 925 214 938 l 214 751 q 263 562 214 678 q 406 268 313 446 q 424 383 424 322 l 424 522 q 380 543 400 522 q 360 590 360 564 q 379 635 360 615 q 403 606 374 617 q 479 596 433 596 q 561 606 528 596 q 535 483 535 586 l 535 371 q 463 157 535 251 l 476 131 m 310 125 q 343 163 333 149 l 321 207 l 299 251 q 165 531 197 453 q 157 474 157 507 q 157 438 157 442 l 157 156 q 172 98 157 125 q 207 58 188 71 q 185 42 194 53 q 175 21 175 31 q 179 10 175 14 q 229 53 196 25 q 310 125 279 93 z "},"¶":{"ha":650,"x_min":14,"x_max":636,"o":"m 540 6 q 575 -233 540 -196 q 468 -146 539 -239 q 401 -99 439 -107 q 410 -89 403 -96 q 424 -69 418 -82 q 429 -36 429 -56 l 429 1008 q 468 1001 453 1001 q 501 1018 497 1001 l 340 1018 l 340 6 q 375 -233 340 -196 q 268 -146 339 -239 q 201 -99 239 -107 q 210 -89 203 -96 q 224 -69 218 -82 q 229 -36 229 -56 l 229 389 q 221 458 228 440 q 197 485 214 476 q 221 511 214 493 q 229 581 228 529 l 229 654 q 144 592 181 601 q 118 589 136 589 q 44 637 72 589 q 14 786 15 685 l 14 869 q 47 1013 15 963 q 134 1083 78 1064 q 278 1101 190 1101 l 518 1101 q 590 1103 568 1101 q 636 1111 613 1106 q 590 1058 606 1081 q 574 1018 574 1036 l 540 1018 l 540 581 q 549 511 542 529 q 572 485 556 493 q 549 458 556 476 q 540 389 542 440 l 540 6 m 125 760 q 137 691 125 714 q 168 668 149 668 q 206 694 188 668 q 229 760 225 719 l 229 1014 q 160 988 185 1011 q 131 896 135 965 l 125 786 l 125 760 z "},"§":{"ha":438,"x_min":14,"x_max":424,"o":"m 385 813 q 390 787 385 803 q 404 764 396 771 q 346 737 376 756 q 274 690 315 718 l 274 772 l 274 893 q 301 881 285 881 q 319 885 311 881 q 324 893 326 889 q 176 961 228 917 q 171 924 171 944 l 171 751 q 213 684 171 717 q 313 632 256 651 q 410 617 371 613 q 386 524 386 590 l 386 154 q 390 99 386 115 q 411 67 393 83 q 377 53 392 65 q 339 17 363 42 q 268 -49 293 -29 q 174 -101 219 -87 q 74 -114 128 -114 l 14 -112 q 60 79 60 -57 l 60 147 q 58 190 60 143 q 49 303 57 236 q 25 388 40 371 q 132 300 61 393 q 199 253 161 261 q 190 243 197 250 q 176 223 182 236 q 171 190 171 210 l 171 56 q 189 15 171 25 q 156 -6 168 8 q 146 -28 144 -19 q 240 36 204 -6 q 275 167 275 78 l 275 294 q 188 328 238 304 q 99 388 139 351 q 54 465 60 424 q 53 492 53 474 q 72 581 53 540 q 118 632 90 621 q 60 738 60 676 l 60 804 q 54 895 60 860 q 29 944 49 931 q 90 962 56 946 q 147 999 124 978 q 139 1035 139 1018 q 183 1111 139 1076 q 179 1096 179 1103 q 222 1036 179 1067 q 324 987 265 1006 q 424 972 382 968 q 396 927 407 960 q 385 861 385 894 l 385 813 m 275 553 q 219 574 253 558 q 154 610 186 589 q 138 554 138 583 q 179 463 138 506 q 275 401 221 421 l 275 553 z "},"©":{"ha":297,"x_min":14,"x_max":283,"o":"m 149 -108 q 53 -69 93 -108 q 14 26 14 -31 q 53 122 14 83 q 149 161 93 161 q 244 122 206 161 q 283 26 283 83 q 244 -69 283 -31 q 149 -108 206 -108 m 149 -83 q 226 -51 194 -83 q 258 26 258 -19 q 226 104 258 72 q 149 136 194 136 q 71 104 103 136 q 39 26 39 72 q 71 -51 39 -19 q 149 -83 103 -83 m 153 -47 q 106 -28 122 -47 q 86 25 86 -8 q 94 64 86 47 q 118 90 103 81 q 153 99 135 99 q 188 89 174 99 q 210 57 201 79 l 182 50 q 169 68 178 64 q 151 74 163 74 q 126 63 136 74 q 117 26 117 51 q 126 -11 117 0 q 150 -22 138 -22 q 169 -15 163 -22 q 182 7 178 -8 l 210 -3 q 188 -36 203 -24 q 153 -47 172 -47 z "},"®":{"ha":176,"x_min":14,"x_max":163,"o":"m 89 1089 q 36 1110 58 1089 q 14 1163 14 1132 q 36 1215 14 1193 q 89 1238 58 1238 q 141 1215 119 1238 q 163 1163 163 1193 q 142 1110 163 1132 q 89 1089 121 1089 m 89 1106 q 129 1123 113 1106 q 146 1163 146 1140 q 129 1203 146 1186 q 89 1219 113 1219 q 49 1203 67 1219 q 32 1163 32 1186 q 49 1123 32 1140 q 89 1106 67 1106 m 75 1124 l 58 1124 l 58 1201 l 94 1201 q 122 1179 122 1201 q 100 1158 122 1161 l 122 1124 l 106 1124 l 81 1158 l 75 1158 l 75 1124 m 75 1190 l 75 1168 l 90 1168 q 101 1171 94 1168 q 107 1179 107 1174 q 90 1190 107 1190 l 75 1190 z "},"™":{"ha":267,"x_min":14,"x_max":253,"o":"m 74 1219 l 74 1118 l 49 1118 l 49 1219 l 14 1219 l 14 1238 l 108 1238 l 108 1219 l 74 1219 m 150 1190 l 150 1118 l 125 1118 l 125 1238 l 150 1238 l 189 1161 l 228 1238 l 253 1238 l 253 1118 l 228 1118 l 228 1190 l 188 1118 l 150 1190 z "},"°":{"ha":176,"x_min":14,"x_max":163,"o":"m 89 1089 q 36 1110 58 1089 q 14 1163 14 1132 q 36 1215 14 1193 q 89 1238 58 1238 q 141 1215 119 1238 q 163 1163 163 1193 q 142 1110 163 1132 q 89 1089 121 1089 m 89 1106 q 129 1123 113 1106 q 146 1163 146 1140 q 129 1203 146 1186 q 89 1219 113 1219 q 49 1203 67 1219 q 32 1163 32 1186 q 49 1123 32 1140 q 89 1106 67 1106 z "}}}
